<?xml version="1.0" encoding="UTF-8"?>
<svg id="_레이어_2" data-name="레이어 2" xmlns="http://www.w3.org/2000/svg" viewBox="0 0 747.99 391.74">
  <defs>
    <style>
      .cls-1 {
        fill: #04002a;
      }

      .cls-1, .cls-2 {
        stroke-width: 0px;
      }

      .cls-2 {
        fill: #fff;
      }
    </style>
  </defs>
  <g id="_레이어_1-2" data-name="레이어 1">
    <g>
      <path class="cls-1" d="M117.01,104.03h85.96v128.3h12.57v64.15h-12.57v23.09h-85.96v-23.09H5.13L0,232.33,117.01,104.03ZM117.01,232.33v-44.65l-40.54,44.65h40.54Z"/>
      <g>
        <g>
          <g>
            <path class="cls-1" d="M579.34,244.67c3.2-22.03-6.1-39.98-12.41-59.84-13.49-39.3-30.28-88.21-54.02-121.62h0c-2.15-3.74-6.33-4.83-10.61-5.64-33.61-5.01-99.88-14.6-148.36-21.37-10.8-1.24-18.5-2.08-27.32.73-5.1,1.59-10.87,5.38-17.62,11.57-9.78,9.11-20.37,19.4-30.57,29.04-8.35,7.91-16.97,16.1-22.89,22.18-2.93,3.23-6.23,6.44-7.85,10.18h0c-21.21,44.53-36.2,92.54-54.15,138.66-10.64,29.55-19.97,50.48-22.23,79.59.19,11.66,6.07,14.32,15.11,18.39,8.04,3.51,15.44,6.53,23.27,9.5,80.16,31.81,178.26,45.24,264.56,28.43v.19c1.24-.47,4.94-1.87,6.13-2.33v-.04c43.17-23.93,86.47-88.43,98.97-137.61ZM258.95,104.8c11.49-11.91,29.12-28.02,42.08-40.56,18.59-17.97,25.51-26.68,52.13-22.13,48.43,6.76,114.66,16.35,148.13,21.33,2.33.59,7,.95,6.64,4.22-1.42,7.2-7.08,15.34-11.05,22.51-7.83,13.34-15.71,26.91-23.51,40.06-6.85,10.65-11.82,22.9-26.36,20.54-47.03-7.33-116.99-21.05-170.73-31.37-2.2-.82-22.64-3.35-23.32-5.72.18-3.43,3.53-5.84,6-8.87ZM446.68,382.99c-87.18,9.37-179.3-6.59-257.95-41.96-8.71-3.92-11.34-5.11-11.47-12.86,2.29-27.98,11.47-48.73,21.83-77.47,17.04-43.79,31.35-89.09,50.89-131.66,3.54,3.01,20.61,5.02,25.17,6.21,52.21,10.09,131.08,25.33,171.08,31.43,3.53.37,7.12.42,10.56-.46,27.22,58.76,22.51,157.45,17.9,221.84-8.2,2.82-17.03,3.76-28.01,4.93ZM491.94,368.12c-3.53,3.04-7.19,5.48-11.09,7.4,4.52-65.98,8.92-160.97-18.56-221.68,13.11-10.38,19.45-27.75,28.71-41.85,7.13-12.84,15.74-25.13,21.51-38.73,24.8,38.77,40.27,89.7,55.44,132.77,3.8,11.48,7.66,24.8,5.52,37.53-8.51,40.57-50.02,99.19-81.53,124.56Z"/>
            <path class="cls-1" d="M285.61,262.11c7.09.75,14.13-3.41,19.82-11.72,5.32-7.76,8.92-18.39,10.14-29.92,2.64-24.85-6.38-45.5-20.54-47-14.16-1.51-27.32,16.78-29.96,41.63-2.42,22.78,4.96,42.03,17.11,46.24,1.1.38,2.25.64,3.43.77Z"/>
            <path class="cls-1" d="M387.21,272.51c1.11.38,2.25.64,3.43.77,14.16,1.51,27.32-16.78,29.96-41.63,2.64-24.85-6.38-45.5-20.54-47-14.16-1.51-27.32,16.78-29.96,41.63-2.42,22.78,4.96,42.03,17.11,46.24Z"/>
            <path class="cls-1" d="M317.46,368.17c-21.29-5.41-37.87-30.98-32.26-58.92-.33-6.35,0-19.3,8.45-29.79,16.51-20.48,56.14-21.91,74.01-.34,13.24,15.98,8.82,37.7,8.02,41.35-2.65,33.46-33.69,53.92-58.22,47.7Z"/>
            <path class="cls-2" d="M491.94,368.12c-3.53,3.04-7.19,5.48-11.09,7.4,4.52-65.98,8.92-160.97-18.56-221.68,13.11-10.38,19.45-27.75,28.71-41.85,7.13-12.84,15.74-25.13,21.51-38.73,24.8,38.77,40.27,89.7,55.44,132.77,3.8,11.48,7.66,24.8,5.52,37.53-8.51,40.57-50.02,99.19-81.53,124.56Z"/>
          </g>
          <path class="cls-1" d="M466.63,3.27c-2.6,8.13-4.13,16.56-4.68,25.07-.15,2.35,2.18,4.6,4.5,4.5,2.57-.12,4.34-1.98,4.5-4.5.13-1.95.3-3.9.54-5.85.04-.3.07-.6.11-.89-.06.45-.05.4.03-.14.07-.44.13-.89.2-1.34.15-.96.32-1.92.51-2.88.75-3.92,1.75-7.78,2.97-11.58.72-2.24-.84-5.01-3.14-5.54-2.46-.56-4.77.74-5.54,3.14h0Z"/>
          <path class="cls-1" d="M529.03,12.13c-6.35,7.91-12.7,15.82-19.05,23.73-1.47,1.83-1.92,4.6,0,6.36,1.64,1.5,4.79,1.96,6.36,0,6.35-7.91,12.7-15.82,19.05-23.73,1.47-1.83,1.92-4.6,0-6.36-1.64-1.5-4.79-1.96-6.36,0h0Z"/>
          <path class="cls-1" d="M547.53,70.42c8.73-.56,17.46-1.12,26.19-1.67,2.34-.15,4.61-1.96,4.5-4.5-.1-2.31-1.98-4.66-4.5-4.5-8.73.56-17.46,1.12-26.19,1.67-2.34.15-4.61,1.96-4.5,4.5.1,2.31,1.98,4.66,4.5,4.5h0Z"/>
        </g>
        <path class="cls-2" d="M258.95,104.8c11.49-11.91,29.12-28.02,42.08-40.56,18.59-17.97,25.51-26.68,52.13-22.13,48.43,6.76,114.66,16.35,148.13,21.33,2.33.59,7,.95,6.64,4.22-1.42,7.2-7.08,15.34-11.05,22.51-7.83,13.34-15.71,26.91-23.51,40.06-6.85,10.65-11.82,22.9-26.36,20.54-47.03-7.33-116.99-21.05-170.73-31.37-2.2-.82-22.64-3.35-23.32-5.72.18-3.43,3.53-5.84,6-8.87Z"/>
        <path class="cls-2" d="M446.68,382.99c-87.18,9.37-179.3-6.59-257.95-41.96-8.71-3.92-11.34-5.11-11.47-12.86,2.29-27.98,11.47-48.73,21.83-77.47,17.04-43.79,31.35-89.09,50.89-131.66,3.54,3.01,20.61,5.02,25.17,6.21,52.21,10.09,131.08,25.33,171.08,31.43,3.53.37,7.12.42,10.56-.46,27.22,58.76,22.51,157.45,17.9,221.84-8.2,2.82-17.03,3.76-28.01,4.93Z"/>
        <path class="cls-1" d="M285.61,262.11c7.09.75,14.13-3.41,19.82-11.72,5.32-7.76,8.92-18.39,10.14-29.92,2.64-24.85-6.38-45.5-20.54-47-14.16-1.51-27.32,16.78-29.96,41.63-2.42,22.78,4.96,42.03,17.11,46.24,1.1.38,2.25.64,3.43.77Z"/>
        <path class="cls-1" d="M387.21,272.51c1.11.38,2.25.64,3.43.77,14.16,1.51,27.32-16.78,29.96-41.63,2.64-24.85-6.38-45.5-20.54-47-14.16-1.51-27.32,16.78-29.96,41.63-2.42,22.78,4.96,42.03,17.11,46.24Z"/>
        <path class="cls-1" d="M317.46,368.17c-21.29-5.41-37.87-30.98-32.26-58.92-.33-6.35,0-19.3,8.45-29.79,16.51-20.48,56.14-21.91,74.01-.34,13.24,15.98,8.82,37.7,8.02,41.35-2.65,33.46-33.69,53.92-58.22,47.7Z"/>
      </g>
      <path class="cls-1" d="M649.46,104.03h85.96v128.3h12.57v64.15h-12.57v23.09h-85.96v-23.09h-111.88l-5.13-64.15,117.01-128.3ZM649.46,232.33v-44.65l-40.54,44.65h40.54Z"/>
    </g>
  </g>
</svg>