<svg width="46" height="40" viewBox="0 0 46 40" fill="none" xmlns="http://www.w3.org/2000/svg">
<path d="M16.375 0.125H29.625L34.0416 4.54167H42.875C44.0946 4.54167 45.0833 5.53038 45.0833 6.75V37.6667C45.0833 38.8863 44.0946 39.875 42.875 39.875H3.12496C1.90534 39.875 0.916626 38.8863 0.916626 37.6667V6.75C0.916626 5.53038 1.90534 4.54167 3.12496 4.54167H11.9583L16.375 0.125ZM23 35.4583C30.3177 35.4583 36.25 29.5261 36.25 22.2083C36.25 14.8906 30.3177 8.95833 23 8.95833C15.6822 8.95833 9.74996 14.8906 9.74996 22.2083C9.74996 29.5261 15.6822 35.4583 23 35.4583ZM23 31.0417C18.1214 31.0417 14.1666 27.0868 14.1666 22.2083C14.1666 17.3299 18.1214 13.375 23 13.375C27.8784 13.375 31.8333 17.3299 31.8333 22.2083C31.8333 27.0868 27.8784 31.0417 23 31.0417Z" fill="#999999"/>
</svg>
