<?xml version="1.0" encoding="UTF-8"?>
<svg xmlns="http://www.w3.org/2000/svg" xmlns:xlink="http://www.w3.org/1999/xlink" width="25px" height="25px" viewBox="0 0 25 25" version="1.1">
<g id="surface1">
<path style=" stroke:none;fill-rule:nonzero;fill:rgb(0%,0%,0%);fill-opacity:1;" d="M 12.066406 2.609375 C 11.917969 2.621094 11.800781 2.652344 11.6875 2.707031 C 11.339844 2.871094 11.109375 3.195312 11.070312 3.574219 C 11.0625 3.644531 11.066406 3.789062 11.078125 3.855469 C 11.109375 4.035156 11.179688 4.199219 11.289062 4.34375 C 11.320312 4.382812 11.421875 4.484375 11.464844 4.523438 C 11.621094 4.648438 11.808594 4.726562 12.011719 4.753906 C 12.089844 4.761719 12.238281 4.761719 12.3125 4.746094 C 12.710938 4.679688 13.039062 4.402344 13.164062 4.023438 C 13.351562 3.460938 13.042969 2.847656 12.484375 2.664062 C 12.351562 2.617188 12.1875 2.597656 12.066406 2.609375 Z M 12.066406 2.609375 "/>
<path style=" stroke:none;fill-rule:nonzero;fill:rgb(0%,0%,0%);fill-opacity:1;" d="M 15.578125 3.214844 C 15.238281 3.234375 14.921875 3.410156 14.714844 3.6875 C 14.46875 4.023438 14.417969 4.460938 14.582031 4.84375 C 14.746094 5.222656 15.097656 5.484375 15.507812 5.539062 C 15.574219 5.546875 15.714844 5.546875 15.785156 5.539062 C 16.175781 5.496094 16.527344 5.246094 16.703125 4.890625 C 16.757812 4.777344 16.789062 4.679688 16.808594 4.550781 C 16.820312 4.476562 16.820312 4.285156 16.808594 4.207031 C 16.796875 4.136719 16.777344 4.050781 16.753906 3.992188 C 16.734375 3.933594 16.679688 3.820312 16.644531 3.765625 C 16.539062 3.59375 16.375 3.441406 16.195312 3.347656 C 16.066406 3.277344 15.890625 3.226562 15.75 3.21875 C 15.660156 3.210938 15.640625 3.210938 15.578125 3.214844 Z M 15.578125 3.214844 "/>
<path style=" stroke:none;fill-rule:nonzero;fill:rgb(0%,0%,0%);fill-opacity:1;" d="M 8.566406 3.394531 C 8.101562 3.425781 7.722656 3.773438 7.652344 4.234375 C 7.640625 4.308594 7.640625 4.449219 7.652344 4.523438 C 7.726562 4.988281 8.097656 5.332031 8.5625 5.363281 C 9.15625 5.40625 9.65625 4.90625 9.613281 4.3125 C 9.589844 3.96875 9.390625 3.667969 9.089844 3.507812 C 8.960938 3.4375 8.8125 3.398438 8.664062 3.394531 C 8.625 3.390625 8.578125 3.390625 8.566406 3.394531 Z M 8.566406 3.394531 "/>
<path style=" stroke:none;fill-rule:nonzero;fill:rgb(0%,0%,0%);fill-opacity:1;" d="M 18.515625 5.117188 C 18.472656 5.121094 18.367188 5.140625 18.320312 5.152344 C 18.015625 5.230469 17.75 5.421875 17.574219 5.6875 C 17.28125 6.140625 17.308594 6.738281 17.652344 7.160156 C 18.0625 7.664062 18.785156 7.777344 19.328125 7.414062 C 19.621094 7.21875 19.8125 6.921875 19.871094 6.570312 C 19.882812 6.488281 19.886719 6.335938 19.878906 6.253906 C 19.855469 6.007812 19.765625 5.785156 19.613281 5.59375 C 19.570312 5.535156 19.476562 5.441406 19.417969 5.394531 C 19.230469 5.242188 19.011719 5.152344 18.769531 5.121094 C 18.714844 5.117188 18.574219 5.113281 18.515625 5.117188 Z M 18.515625 5.117188 "/>
<path style=" stroke:none;fill-rule:nonzero;fill:rgb(0%,0%,0%);fill-opacity:1;" d="M 5.585938 5.476562 C 5.375 5.492188 5.183594 5.578125 5.03125 5.726562 C 4.875 5.878906 4.785156 6.0625 4.761719 6.28125 C 4.730469 6.570312 4.851562 6.871094 5.078125 7.058594 C 5.140625 7.113281 5.1875 7.140625 5.261719 7.175781 C 5.496094 7.292969 5.761719 7.300781 6.007812 7.195312 C 6.117188 7.148438 6.210938 7.082031 6.304688 6.988281 C 6.421875 6.867188 6.496094 6.71875 6.535156 6.546875 C 6.546875 6.5 6.546875 6.476562 6.546875 6.371094 C 6.546875 6.234375 6.542969 6.195312 6.507812 6.089844 C 6.378906 5.699219 5.996094 5.445312 5.585938 5.476562 Z M 5.585938 5.476562 "/>
<path style=" stroke:none;fill-rule:nonzero;fill:rgb(0%,0%,0%);fill-opacity:1;" d="M 20.496094 8.003906 C 19.988281 8.054688 19.550781 8.386719 19.363281 8.863281 C 19.324219 8.964844 19.296875 9.078125 19.28125 9.199219 C 19.273438 9.289062 19.273438 9.457031 19.289062 9.539062 C 19.324219 9.785156 19.425781 10.015625 19.582031 10.199219 C 19.660156 10.296875 19.773438 10.398438 19.878906 10.46875 C 20.304688 10.753906 20.863281 10.765625 21.304688 10.507812 C 21.46875 10.40625 21.632812 10.253906 21.738281 10.09375 C 21.863281 9.90625 21.9375 9.699219 21.960938 9.476562 C 21.96875 9.402344 21.964844 9.222656 21.953125 9.148438 C 21.921875 8.949219 21.851562 8.769531 21.742188 8.605469 C 21.6875 8.519531 21.644531 8.46875 21.574219 8.398438 C 21.363281 8.1875 21.101562 8.054688 20.804688 8.011719 C 20.742188 8.003906 20.5625 8 20.496094 8.003906 Z M 20.496094 8.003906 "/>
<path style=" stroke:none;fill-rule:nonzero;fill:rgb(0%,0%,0%);fill-opacity:1;" d="M 3.5625 8.542969 C 3.375 8.570312 3.210938 8.652344 3.085938 8.785156 C 2.976562 8.894531 2.902344 9.03125 2.867188 9.191406 C 2.859375 9.234375 2.859375 9.257812 2.859375 9.347656 C 2.859375 9.464844 2.863281 9.507812 2.894531 9.601562 C 2.988281 9.882812 3.230469 10.089844 3.523438 10.144531 C 3.597656 10.15625 3.738281 10.15625 3.8125 10.140625 C 4.101562 10.082031 4.332031 9.882812 4.425781 9.609375 C 4.460938 9.515625 4.46875 9.472656 4.46875 9.347656 C 4.46875 9.253906 4.464844 9.230469 4.457031 9.1875 C 4.421875 9.023438 4.351562 8.898438 4.234375 8.777344 C 4.117188 8.660156 3.988281 8.589844 3.828125 8.554688 C 3.792969 8.546875 3.761719 8.542969 3.679688 8.542969 C 3.625 8.542969 3.570312 8.542969 3.5625 8.542969 Z M 3.5625 8.542969 "/>
<path style=" stroke:none;fill-rule:nonzero;fill:rgb(0%,0%,0%);fill-opacity:1;" d="M 21.261719 11.421875 C 20.792969 11.441406 20.371094 11.683594 20.113281 12.078125 C 19.992188 12.257812 19.917969 12.472656 19.890625 12.695312 C 19.882812 12.761719 19.882812 12.953125 19.890625 13.019531 C 19.910156 13.199219 19.957031 13.351562 20.035156 13.503906 C 20.335938 14.101562 21.011719 14.414062 21.660156 14.253906 C 21.910156 14.191406 22.128906 14.070312 22.316406 13.886719 C 22.546875 13.664062 22.683594 13.390625 22.738281 13.066406 C 22.75 12.992188 22.753906 12.785156 22.742188 12.699219 C 22.667969 12.046875 22.171875 11.535156 21.527344 11.4375 C 21.480469 11.429688 21.316406 11.417969 21.300781 11.421875 C 21.300781 11.421875 21.28125 11.421875 21.261719 11.421875 Z M 21.261719 11.421875 "/>
<path style=" stroke:none;fill-rule:nonzero;fill:rgb(0%,0%,0%);fill-opacity:1;" d="M 2.867188 12.144531 C 2.5625 12.191406 2.328125 12.414062 2.261719 12.714844 C 2.253906 12.75 2.253906 12.78125 2.253906 12.863281 C 2.253906 12.960938 2.253906 12.972656 2.265625 13.023438 C 2.339844 13.308594 2.558594 13.515625 2.847656 13.566406 C 2.90625 13.578125 3.027344 13.578125 3.085938 13.566406 C 3.3125 13.527344 3.503906 13.386719 3.605469 13.1875 C 3.632812 13.136719 3.660156 13.058594 3.671875 12.996094 C 3.679688 12.960938 3.683594 12.929688 3.683594 12.855469 C 3.683594 12.765625 3.679688 12.753906 3.667969 12.699219 C 3.636719 12.558594 3.566406 12.441406 3.460938 12.339844 C 3.363281 12.242188 3.25 12.183594 3.113281 12.152344 C 3.058594 12.144531 2.917969 12.136719 2.867188 12.144531 Z M 2.867188 12.144531 "/>
<path style=" stroke:none;fill-rule:nonzero;fill:rgb(0%,0%,0%);fill-opacity:1;" d="M 3.582031 15.746094 C 3.34375 15.777344 3.140625 15.945312 3.066406 16.175781 C 3.042969 16.234375 3.035156 16.296875 3.035156 16.371094 C 3.035156 16.542969 3.097656 16.695312 3.222656 16.816406 C 3.308594 16.902344 3.414062 16.960938 3.539062 16.988281 C 3.597656 17 3.726562 17 3.785156 16.988281 C 4.101562 16.921875 4.316406 16.640625 4.289062 16.320312 C 4.277344 16.167969 4.214844 16.035156 4.105469 15.925781 C 4.015625 15.835938 3.90625 15.777344 3.785156 15.753906 C 3.734375 15.742188 3.628906 15.738281 3.582031 15.746094 Z M 3.582031 15.746094 "/>
<path style=" stroke:none;fill-rule:nonzero;fill:rgb(0%,0%,0%);fill-opacity:1;" d="M 20.582031 16.285156 C 20.550781 16.300781 20.53125 16.335938 20.53125 16.371094 C 20.53125 16.398438 20.535156 16.410156 20.554688 16.429688 C 20.574219 16.453125 20.589844 16.460938 20.621094 16.460938 C 20.648438 16.460938 20.667969 16.453125 20.683594 16.429688 C 20.703125 16.410156 20.710938 16.398438 20.710938 16.371094 C 20.710938 16.355469 20.707031 16.339844 20.703125 16.332031 C 20.695312 16.316406 20.675781 16.296875 20.660156 16.285156 C 20.640625 16.277344 20.601562 16.277344 20.582031 16.285156 Z M 20.582031 16.285156 "/>
<path style=" stroke:none;fill-rule:nonzero;fill:rgb(0%,0%,0%);fill-opacity:1;" d="M 5.570312 18.8125 C 5.355469 18.847656 5.1875 19 5.128906 19.21875 C 5.121094 19.25 5.117188 19.273438 5.117188 19.34375 C 5.117188 19.425781 5.121094 19.4375 5.132812 19.480469 C 5.15625 19.578125 5.203125 19.660156 5.277344 19.730469 C 5.351562 19.800781 5.425781 19.84375 5.519531 19.867188 C 5.5625 19.878906 5.574219 19.882812 5.65625 19.882812 C 5.726562 19.882812 5.75 19.878906 5.78125 19.871094 C 5.84375 19.851562 5.894531 19.832031 5.941406 19.800781 C 6.199219 19.636719 6.269531 19.300781 6.105469 19.050781 C 6.007812 18.902344 5.847656 18.8125 5.671875 18.808594 C 5.632812 18.804688 5.597656 18.808594 5.570312 18.8125 Z M 5.570312 18.8125 "/>
<path style=" stroke:none;fill-rule:nonzero;fill:rgb(0%,0%,0%);fill-opacity:1;" d="M 18.578125 19.171875 C 18.527344 19.1875 18.492188 19.222656 18.464844 19.269531 C 18.453125 19.289062 18.453125 19.300781 18.453125 19.34375 C 18.453125 19.390625 18.453125 19.402344 18.464844 19.421875 C 18.480469 19.453125 18.519531 19.496094 18.550781 19.507812 C 18.640625 19.550781 18.75 19.511719 18.792969 19.421875 C 18.804688 19.398438 18.808594 19.386719 18.808594 19.34375 C 18.808594 19.304688 18.804688 19.292969 18.792969 19.269531 C 18.777344 19.234375 18.734375 19.195312 18.703125 19.179688 C 18.671875 19.164062 18.605469 19.160156 18.578125 19.171875 Z M 18.578125 19.171875 "/>
<path style=" stroke:none;fill-rule:nonzero;fill:rgb(0%,0%,0%);fill-opacity:1;" d="M 8.570312 20.890625 C 8.480469 20.902344 8.390625 20.949219 8.320312 21.011719 C 8.257812 21.070312 8.222656 21.132812 8.195312 21.214844 C 8.183594 21.253906 8.183594 21.265625 8.183594 21.335938 C 8.183594 21.402344 8.183594 21.417969 8.195312 21.453125 C 8.25 21.652344 8.425781 21.785156 8.625 21.785156 C 8.710938 21.785156 8.773438 21.769531 8.84375 21.730469 C 8.957031 21.671875 9.035156 21.570312 9.066406 21.441406 C 9.082031 21.390625 9.082031 21.277344 9.066406 21.222656 C 9.023438 21.0625 8.890625 20.933594 8.730469 20.898438 C 8.6875 20.886719 8.609375 20.882812 8.570312 20.890625 Z M 8.570312 20.890625 "/>
<path style=" stroke:none;fill-rule:nonzero;fill:rgb(0%,0%,0%);fill-opacity:1;" d="M 15.59375 21.074219 C 15.496094 21.09375 15.414062 21.179688 15.390625 21.273438 C 15.355469 21.421875 15.453125 21.570312 15.601562 21.601562 C 15.789062 21.640625 15.960938 21.464844 15.917969 21.277344 C 15.902344 21.210938 15.855469 21.144531 15.800781 21.109375 C 15.742188 21.070312 15.660156 21.058594 15.59375 21.074219 Z M 15.59375 21.074219 "/>
<path style=" stroke:none;fill-rule:nonzero;fill:rgb(0%,0%,0%);fill-opacity:1;" d="M 12.097656 21.675781 C 11.957031 21.691406 11.828125 21.804688 11.792969 21.945312 C 11.777344 21.996094 11.78125 22.082031 11.792969 22.128906 C 11.832031 22.257812 11.929688 22.351562 12.054688 22.382812 C 12.097656 22.394531 12.1875 22.394531 12.230469 22.382812 C 12.34375 22.351562 12.441406 22.265625 12.484375 22.148438 C 12.5 22.101562 12.503906 22.011719 12.492188 21.953125 C 12.464844 21.828125 12.359375 21.71875 12.234375 21.683594 C 12.1875 21.671875 12.144531 21.671875 12.097656 21.675781 Z M 12.097656 21.675781 "/>
</g>
</svg>
