<svg width="24" height="25" viewBox="0 0 24 25" fill="none" xmlns="http://www.w3.org/2000/svg">
<path d="M19.9956 6.45849L23.2383 3.21585L21.8241 1.80164L18.5814 5.04428H3.3397C2.7874 5.04428 2.3397 5.492 2.3397 6.04428C2.3397 6.1416 2.3539 6.23841 2.3818 6.33163L4.7818 14.3316C4.9087 14.7546 5.2981 15.0443 5.7397 15.0443H17.9956V17.0443H6.9956V19.0443H18.9956C19.5479 19.0443 19.9956 18.5965 19.9956 18.0443V6.45849ZM18.4956 23.0443C19.3241 23.0443 19.9956 22.3727 19.9956 21.5443C19.9956 20.7158 19.3241 20.0443 18.4956 20.0443C17.6672 20.0443 16.9956 20.7158 16.9956 21.5443C16.9956 22.3727 17.6672 23.0443 18.4956 23.0443ZM6.4956 23.0443C7.3241 23.0443 7.9956 22.3727 7.9956 21.5443C7.9956 20.7158 7.3241 20.0443 6.4956 20.0443C5.6672 20.0443 4.9956 20.7158 4.9956 21.5443C4.9956 22.3727 5.6672 23.0443 6.4956 23.0443Z" fill="white"/>
</svg>
