<svg width="24" height="24" viewBox="0 0 24 24" fill="none" xmlns="http://www.w3.org/2000/svg">
<path d="M19.9956 6.41662L23.2383 3.17398L21.8241 1.75977L18.5814 5.00241H3.3397C2.7874 5.00241 2.3397 5.45013 2.3397 6.00241C2.3397 6.09973 2.3539 6.19654 2.3818 6.28976L4.7818 14.2898C4.9087 14.7128 5.2981 15.0025 5.7397 15.0025H17.9956V17.0025H6.9956V19.0025H18.9956C19.5479 19.0025 19.9956 18.5547 19.9956 18.0025V6.41662ZM18.4956 23.0025C19.3241 23.0025 19.9956 22.3309 19.9956 21.5025C19.9956 20.674 19.3241 20.0025 18.4956 20.0025C17.6672 20.0025 16.9956 20.674 16.9956 21.5025C16.9956 22.3309 17.6672 23.0025 18.4956 23.0025ZM6.4956 23.0025C7.3241 23.0025 7.9956 22.3309 7.9956 21.5025C7.9956 20.674 7.3241 20.0025 6.4956 20.0025C5.6672 20.0025 4.9956 20.674 4.9956 21.5025C4.9956 22.3309 5.6672 23.0025 6.4956 23.0025Z" fill="#111111"/>
</svg>
