<svg width="22" height="18" viewBox="0 0 22 18" fill="none" xmlns="http://www.w3.org/2000/svg">
<path d="M0.179688 9C1.1202 3.87976 5.60617 0 10.9983 0C16.3904 0 20.8764 3.87976 21.8169 9C20.8764 14.1202 16.3904 18 10.9983 18C5.60617 18 1.1202 14.1202 0.179688 9ZM10.9983 14C13.7597 14 15.9983 11.7614 15.9983 9C15.9983 6.23858 13.7597 4 10.9983 4C8.23689 4 5.99831 6.23858 5.99831 9C5.99831 11.7614 8.23689 14 10.9983 14ZM10.9983 12C9.34145 12 7.99831 10.6569 7.99831 9C7.99831 7.3431 9.34145 6 10.9983 6C12.6551 6 13.9983 7.3431 13.9983 9C13.9983 10.6569 12.6551 12 10.9983 12Z" fill="#A5A5A5"/>
</svg>
