<svg width="22" height="22" viewBox="0 0 22 22" fill="none" xmlns="http://www.w3.org/2000/svg">
<path d="M3.51852 4.93457L0.391707 1.80777L1.80593 0.393555L21.6049 20.1925L20.1907 21.6068L16.8807 18.2968C15.1794 19.3755 13.1618 20.0002 10.9983 20.0002C5.60617 20.0002 1.1202 16.1204 0.179688 11.0002C0.616367 8.62283 1.81737 6.5129 3.51852 4.93457ZM13.7557 15.1718L12.2917 13.7078C11.9 13.8952 11.4614 14.0002 10.9983 14.0002C9.34145 14.0002 7.99831 12.657 7.99831 11.0002C7.99831 10.537 8.10327 10.0984 8.29068 9.70671L6.82671 8.24277C6.30319 9.03321 5.99831 9.9811 5.99831 11.0002C5.99831 13.7616 8.23689 16.0002 10.9983 16.0002C12.0173 16.0002 12.9652 15.6953 13.7557 15.1718ZM6.97251 2.76015C8.21932 2.26959 9.57735 2.00016 10.9983 2.00016C16.3904 2.00016 20.8764 5.87993 21.8169 11.0002C21.5047 12.6998 20.8018 14.2628 19.8048 15.5925L15.945 11.7327C15.9801 11.4936 15.9983 11.249 15.9983 11.0002C15.9983 8.23874 13.7597 6.00016 10.9983 6.00016C10.7494 6.00016 10.5048 6.01833 10.2657 6.05343L6.97251 2.76015Z" fill="#A5A5A5"/>
</svg>
