<svg width="44" height="43" viewBox="0 0 44 43" fill="none" xmlns="http://www.w3.org/2000/svg">
<g clip-path="url(#clip0_395_5138)">
<path d="M14.8825 34.6235C14.8825 34.8014 14.6831 34.9436 14.4317 34.9436C14.1456 34.9703 13.9462 34.828 13.9462 34.6235C13.9462 34.4457 14.1456 34.3034 14.397 34.3034C14.6571 34.2768 14.8825 34.419 14.8825 34.6235ZM12.1863 34.2234C12.1256 34.4012 12.299 34.6058 12.5591 34.6591C12.7845 34.748 13.0446 34.6591 13.0966 34.4813C13.1486 34.3034 12.9839 34.0989 12.7238 34.0189C12.4984 33.9567 12.247 34.0456 12.1863 34.2234ZM16.0181 34.0723C15.7667 34.1345 15.5933 34.3034 15.6194 34.5079C15.6454 34.6858 15.8708 34.8014 16.1308 34.7391C16.3823 34.6769 16.5556 34.5079 16.5296 34.3301C16.5036 34.1612 16.2696 34.0456 16.0181 34.0723ZM21.7226 0C9.69819 0 0.5 9.36276 0.5 21.6953C0.5 31.556 6.55121 39.994 15.1946 42.9638C16.3042 43.1683 16.6944 42.4658 16.6944 41.8879C16.6944 41.3366 16.6683 38.2957 16.6683 36.4285C16.6683 36.4285 10.5998 37.7622 9.3254 33.7788C9.3254 33.7788 8.3371 31.1914 6.91532 30.5245C6.91532 30.5245 4.93004 29.1286 7.05403 29.1553C7.05403 29.1553 9.2127 29.3331 10.4004 31.4493C12.299 34.8814 15.4806 33.8944 16.7204 33.3076C16.9198 31.885 17.4833 30.898 18.1075 30.3112C13.2613 29.7599 8.37177 29.0397 8.37177 20.486C8.37177 18.0409 9.03065 16.8138 10.4177 15.2489C10.1923 14.671 9.45544 12.2881 10.6431 9.2116C12.455 8.63365 16.625 11.6123 16.625 11.6123C18.3589 11.1144 20.2228 10.8565 22.0694 10.8565C23.9159 10.8565 25.7798 11.1144 27.5137 11.6123C27.5137 11.6123 31.6837 8.62476 33.4956 9.2116C34.6833 12.297 33.9464 14.671 33.721 15.2489C35.1081 16.8227 35.9577 18.0498 35.9577 20.486C35.9577 29.0663 30.8514 29.751 26.0052 30.3112C26.8028 31.0136 27.479 32.3473 27.479 34.4368C27.479 37.4333 27.453 41.141 27.453 41.8701C27.453 42.4481 27.8518 43.1505 28.9528 42.946C37.6222 39.994 43.5 31.556 43.5 21.6953C43.5 9.36276 33.747 0 21.7226 0ZM8.92661 30.6668C8.81391 30.7557 8.83992 30.9602 8.9873 31.1292C9.12601 31.2714 9.3254 31.3337 9.4381 31.2181C9.55081 31.1292 9.5248 30.9247 9.37742 30.7557C9.23871 30.6135 9.03931 30.5512 8.92661 30.6668ZM7.99032 29.9466C7.92964 30.0622 8.01633 30.2045 8.18972 30.2934C8.32843 30.3823 8.50181 30.3556 8.5625 30.2311C8.62319 30.1155 8.53649 29.9733 8.3631 29.8844C8.18972 29.831 8.05101 29.8577 7.99032 29.9466ZM10.7992 33.112C10.6605 33.2276 10.7125 33.4943 10.9119 33.6633C11.1113 33.8678 11.3627 33.8944 11.4754 33.7522C11.5881 33.6366 11.5361 33.3698 11.3627 33.2009C11.172 32.9964 10.9119 32.9697 10.7992 33.112ZM9.81089 31.8049C9.67218 31.8938 9.67218 32.125 9.81089 32.3295C9.9496 32.534 10.1837 32.6229 10.2964 32.534C10.4351 32.4184 10.4351 32.1873 10.2964 31.9828C10.175 31.7783 9.9496 31.6893 9.81089 31.8049Z" fill="#04002A"/>
</g>
<defs>
<clipPath id="clip0_395_5138">
<rect width="43" height="43" fill="white" transform="translate(0.5)"/>
</clipPath>
</defs>
</svg>
