<svg width="22" height="22" viewBox="0 0 22 22" fill="none" xmlns="http://www.w3.org/2000/svg">
<rect x="2" y="3" width="18" height="16" fill="white"/>
<path fill-rule="evenodd" clip-rule="evenodd" d="M4 0C2.93913 0 1.92172 0.421427 1.17157 1.17157C0.421427 1.92172 0 2.93913 0 4V18C0 19.0609 0.421427 20.0783 1.17157 20.8284C1.92172 21.5786 2.93913 22 4 22H18C19.0609 22 20.0783 21.5786 20.8284 20.8284C21.5786 20.0783 22 19.0609 22 18V4C22 2.93913 21.5786 1.92172 20.8284 1.17157C20.0783 0.421427 19.0609 0 18 0H4ZM8.818 6.773C8.818 6.773 9.491 6.409 11 6.409C12.51 6.409 13.182 6.773 13.182 6.773C14.596 5.523 15.493 5.093 17.182 4.591C17.837 6.145 17.946 7.02 17.909 8.591C17.909 8.591 19 9.441 19 12.227C19 17.044 15.009 18.409 11 18.409C6.991 18.409 3 17.044 3 12.227C3 9.441 4.09 8.591 4.09 8.591C4.054 7.02 4.163 6.145 4.818 4.591C6.507 5.093 7.404 5.522 8.818 6.773ZM5.182 13.318C5.412 10.538 7.55 10.787 9.509 11.016C10.032 11.076 10.542 11.136 11 11.136C11.458 11.136 11.968 11.076 12.491 11.016C14.45 10.786 16.587 10.537 16.818 13.318C17.126 17.032 13.622 16.987 11.488 16.959C11.315 16.957 11.152 16.955 11 16.955C10.848 16.955 10.685 16.957 10.513 16.959C8.378 16.987 4.873 17.032 5.182 13.319V13.318ZM9.364 13.864C9.364 14.767 8.875 15.5 8.273 15.5C7.67 15.5 7.182 14.767 7.182 13.864C7.182 12.96 7.67 12.227 8.272 12.227C8.875 12.227 9.364 12.96 9.364 13.863V13.864ZM13.727 15.5C14.33 15.5 14.818 14.767 14.818 13.864C14.818 12.96 14.33 12.227 13.728 12.227C13.125 12.227 12.636 12.96 12.636 13.863C12.636 14.767 13.125 15.5 13.727 15.5Z" fill="black"/>
</svg>
