<svg width="43" height="43" viewBox="0 0 43 43" fill="none" xmlns="http://www.w3.org/2000/svg">
<g clip-path="url(#clip0_395_5139)">
<path d="M42.4998 21.6634C42.4998 20.2037 42.3842 18.736 42.1374 17.3H22.3398V25.5691H33.677C33.2065 28.2361 31.2733 30.9208 29.0598 32.42L29.4815 37.46L35.7798 37.46C39.7517 33.7199 42.4998 28.1966 42.4998 21.6634Z" fill="#4968F6"/>
<path d="M42.4998 21.6634C42.4998 20.2037 42.3842 18.736 42.1374 17.3H22.3398V25.5691H33.677C33.2065 28.2361 31.2733 30.9208 29.0598 32.42L29.4815 37.46L35.7798 37.46C39.7517 33.7199 42.4998 28.1966 42.4998 21.6634Z" fill="black" fill-opacity="0.2"/>
<path d="M21.8279 42.5C27.5045 42.5 32.2916 40.6596 35.7795 37.4829L29.0595 32.42C27.1725 33.6876 24.6739 34.2757 21.8357 34.2757C16.3447 34.2757 11.41 30.6178 9.73953 25.7H3.01953V31.0531C6.59251 38.0709 13.8699 42.5 21.8279 42.5Z" fill="#34A853"/>
<path d="M9.73996 25.7C8.77715 23.1443 9.19715 19.8557 10.16 17.3L10.58 12.26L3.01994 11.84C-0.240119 17.6547 -0.315053 24.9253 2.94501 30.74L9.73996 25.7Z" fill="#FBBC04"/>
<path d="M22.2331 8.72134C25.2984 8.67555 28.261 9.78986 30.481 11.8353L36.6195 5.90504C32.7326 2.37894 27.5737 0.440342 22.2331 0.5014C14.1037 0.5014 6.66947 4.81832 3.01953 11.84L10.1614 17.3C11.86 12.3772 16.6239 8.72134 22.2331 8.72134Z" fill="#EA4335"/>
</g>
<defs>
<clipPath id="clip0_395_5139">
<rect width="42" height="42" fill="white" transform="translate(0.5 0.5)"/>
</clipPath>
</defs>
</svg>
