<svg width="43" height="43" viewBox="0 0 43 43" fill="none" xmlns="http://www.w3.org/2000/svg">
<circle cx="21.5" cy="21.5" r="21.5" fill="#FEE500"/>
<path d="M21.5621 10.3765C14.873 10.3765 9.47852 14.692 9.47852 19.931C9.47852 23.3317 11.7226 26.3094 15.0887 28.0097L13.9494 32.2649C13.9279 32.3287 13.9246 32.3971 13.9399 32.4627C13.9551 32.5282 13.9883 32.5882 14.0357 32.636C14.1049 32.697 14.1938 32.7307 14.286 32.7309C14.3625 32.7248 14.435 32.6946 14.4932 32.6446L19.3956 29.339C20.1193 29.4388 20.8488 29.4907 21.5793 29.4943C28.2598 29.4943 33.6628 25.1787 33.6628 19.931C33.6628 14.6833 28.2425 10.3765 21.5621 10.3765Z" fill="#392020"/>
<path d="M13.7072 18.4205H12.3867C12.223 18.4252 12.0613 18.3833 11.9206 18.2996C11.8581 18.2605 11.8044 18.2088 11.7628 18.1479C11.7212 18.087 11.6927 18.0182 11.6789 17.9457C11.6747 17.8998 11.6747 17.8536 11.6789 17.8077C11.6748 17.7218 11.6915 17.636 11.7276 17.5579C11.7636 17.4798 11.818 17.4115 11.8861 17.3589C12.0365 17.2499 12.2182 17.1923 12.4039 17.1948H16.3829C16.5478 17.189 16.7106 17.2343 16.849 17.3243C16.9129 17.3617 16.9678 17.4129 17.0096 17.4741C17.0514 17.5353 17.079 17.605 17.0906 17.6782C17.0948 17.7213 17.0948 17.7647 17.0906 17.8077C17.0947 17.8949 17.078 17.9818 17.042 18.0613C17.006 18.1408 16.9517 18.2106 16.8835 18.2651C16.7367 18.3739 16.5568 18.4288 16.3742 18.4205H15.0968V22.9605C15.102 23.0572 15.0871 23.1539 15.0529 23.2445C15.0187 23.3351 14.9661 23.4177 14.8983 23.4869C14.8334 23.5531 14.7552 23.605 14.669 23.6392C14.5828 23.6734 14.4904 23.6891 14.3977 23.6854C14.2356 23.6901 14.077 23.6383 13.9489 23.5388C13.827 23.4416 13.7442 23.3036 13.7159 23.1503C13.7073 23.0873 13.7073 23.0235 13.7159 22.9605L13.7072 18.4205Z" fill="#FEE500"/>
<path d="M17.471 17.5317C17.509 17.3896 17.5981 17.2666 17.7213 17.1864C17.8526 17.112 18.0021 17.0761 18.1529 17.0828H18.4808C18.6408 17.0771 18.7992 17.1159 18.9383 17.195C19.0857 17.2942 19.1905 17.4451 19.2318 17.618L20.958 22.4945C21.0027 22.6218 21.0402 22.7515 21.0702 22.883C21.0731 22.9376 21.0731 22.9923 21.0702 23.0469C21.0731 23.1311 21.0576 23.2148 21.0248 23.2923C20.992 23.3698 20.9427 23.4393 20.8803 23.4958C20.8198 23.5578 20.7472 23.6066 20.667 23.6393C20.5868 23.6719 20.5008 23.6877 20.4142 23.6856C20.2811 23.6989 20.1474 23.6669 20.0346 23.5949C19.9219 23.5229 19.8367 23.415 19.7928 23.2886L19.4303 22.227H17.1603L16.7978 23.2886C16.7549 23.4175 16.6687 23.5275 16.5538 23.5999C16.4389 23.6723 16.3025 23.7026 16.1677 23.6856C16.0218 23.6895 15.8788 23.6438 15.762 23.5562C15.6483 23.4657 15.5716 23.3368 15.5463 23.1937C15.5417 23.1449 15.5417 23.0957 15.5463 23.0469C15.5315 22.9613 15.5315 22.8738 15.5463 22.7881C15.5463 22.6931 15.6067 22.5895 15.6412 22.4945L17.471 17.5317ZM18.3341 18.6624L17.5142 21.2517H19.1454L18.3341 18.6624Z" fill="#FEE500"/>
<path d="M21.2683 17.8078C21.2596 17.6141 21.3278 17.4249 21.4582 17.2814C21.5245 17.2145 21.6041 17.1622 21.6918 17.1281C21.7795 17.0939 21.8734 17.0784 21.9674 17.0828C22.1291 17.0809 22.2869 17.1325 22.4163 17.2295C22.5361 17.3308 22.6158 17.4716 22.6407 17.6265C22.6492 17.6866 22.6492 17.7477 22.6407 17.8078V22.3478H25.0142C25.1787 22.3457 25.3405 22.3905 25.4803 22.4772C25.5431 22.5159 25.5971 22.5675 25.6388 22.6285C25.6804 22.6894 25.7088 22.7585 25.722 22.8311C25.722 22.8311 25.722 22.9174 25.722 22.9606C25.7261 23.0465 25.7094 23.1322 25.6733 23.2103C25.6373 23.2884 25.5829 23.3568 25.5148 23.4094C25.3644 23.5184 25.1827 23.5759 24.997 23.5734H22.0796C21.8938 23.5853 21.7092 23.5369 21.5532 23.4353C21.4136 23.331 21.3206 23.176 21.2942 23.0038C21.2879 22.9089 21.2879 22.8137 21.2942 22.7189L21.2683 17.8078Z" fill="#FEE500"/>
<path d="M25.8785 17.808C25.8733 17.6148 25.9411 17.4268 26.0684 17.2815C26.1977 17.1639 26.3637 17.0945 26.5382 17.0851C26.7127 17.0756 26.8852 17.1267 27.0264 17.2296C27.1489 17.33 27.2316 17.4708 27.2595 17.6266C27.2637 17.687 27.2637 17.7476 27.2595 17.808V19.9225L29.4431 17.4022C29.5273 17.3162 29.6166 17.2356 29.7107 17.1606C29.7993 17.1078 29.901 17.0808 30.0042 17.0829C30.155 17.082 30.3025 17.1272 30.4271 17.2124C30.4858 17.2519 30.5359 17.3029 30.5744 17.3622C30.613 17.4215 30.6392 17.4879 30.6515 17.5576C30.655 17.5747 30.655 17.5924 30.6515 17.6095C30.6473 17.6294 30.6473 17.6499 30.6515 17.6698C30.6512 17.7607 30.6274 17.8499 30.5824 17.9288C30.5366 18.0124 30.4816 18.0904 30.4185 18.1618L28.9857 19.7327L30.7119 22.4083V22.4946C30.8015 22.6183 30.8714 22.7552 30.9191 22.9003V22.9434C30.929 23.0434 30.9146 23.1444 30.877 23.2376C30.8395 23.3308 30.7798 23.4134 30.7033 23.4785C30.5593 23.5874 30.3831 23.6451 30.2027 23.6426C30.0828 23.6475 29.9637 23.6207 29.8574 23.5648C29.7425 23.4877 29.6477 23.3841 29.5812 23.2628L27.9759 20.6734L27.2077 21.4762V22.9175C27.2129 23.1106 27.1451 23.2986 27.0178 23.444C26.9496 23.5106 26.8685 23.5627 26.7794 23.5969C26.6903 23.631 26.5952 23.6466 26.4999 23.6426C26.3407 23.6459 26.1852 23.594 26.0597 23.4958C25.9378 23.3986 25.8551 23.2608 25.8267 23.1075C25.8182 23.0445 25.8182 22.9805 25.8267 22.9175L25.8785 17.808Z" fill="#FEE500"/>
</svg>
