<svg width="45" height="45" viewBox="0 0 45 45" fill="none" xmlns="http://www.w3.org/2000/svg">
<ellipse cx="22.5" cy="22.5" rx="22" ry="22.5" fill="#FEE500"/>
<path d="M22.5638 10.8592C15.7191 10.8592 10.1992 15.3754 10.1992 20.8581C10.1992 24.417 12.4955 27.5332 15.9399 29.3126L14.7741 33.7657C14.7521 33.8324 14.7487 33.904 14.7643 33.9726C14.7799 34.0412 14.8139 34.104 14.8624 34.154C14.9332 34.2178 15.0242 34.2531 15.1185 34.2534C15.1968 34.2469 15.271 34.2153 15.3305 34.1631L20.347 30.7036C21.0875 30.8082 21.8339 30.8624 22.5814 30.8662C29.4173 30.8662 34.946 26.3499 34.946 20.8581C34.946 15.3664 29.3996 10.8592 22.5638 10.8592Z" fill="#392020"/>
<path d="M14.526 19.2774H13.1747C13.0072 19.2824 12.8418 19.2385 12.6978 19.1509C12.6338 19.11 12.5789 19.0559 12.5363 18.9922C12.4937 18.9284 12.4645 18.8564 12.4505 18.7806C12.4462 18.7325 12.4462 18.6842 12.4505 18.6361C12.4463 18.5462 12.4634 18.4565 12.5003 18.3747C12.5372 18.2929 12.5928 18.2215 12.6624 18.1664C12.8164 18.0524 13.0023 17.9921 13.1924 17.9948H17.2638C17.4326 17.9887 17.5992 18.036 17.7407 18.1303C17.8062 18.1694 17.8623 18.223 17.9051 18.2871C17.9479 18.3511 17.9762 18.424 17.988 18.5006C17.9923 18.5457 17.9923 18.5911 17.988 18.6361C17.9922 18.7274 17.9752 18.8183 17.9383 18.9015C17.9015 18.9847 17.8459 19.0578 17.7761 19.1148C17.6258 19.2287 17.4418 19.2862 17.255 19.2774H15.9479V24.0285C15.9532 24.1298 15.9379 24.231 15.9029 24.3258C15.8679 24.4207 15.8141 24.5071 15.7447 24.5795C15.6783 24.6488 15.5983 24.7031 15.5101 24.7388C15.4219 24.7746 15.3273 24.7911 15.2325 24.7872C15.0666 24.7921 14.9043 24.7379 14.7732 24.6338C14.6485 24.5321 14.5638 24.3877 14.5348 24.2272C14.5261 24.1613 14.5261 24.0945 14.5348 24.0285L14.526 19.2774Z" fill="#FEE500"/>
<path d="M18.3793 18.347C18.4182 18.1984 18.5094 18.0697 18.6354 17.9857C18.7697 17.9079 18.9228 17.8703 19.077 17.8773H19.4126C19.5763 17.8713 19.7384 17.912 19.8807 17.9948C20.0316 18.0985 20.1388 18.2565 20.181 18.4373L21.9474 23.5408C21.9932 23.6739 22.0315 23.8097 22.0622 23.9473C22.0652 24.0044 22.0652 24.0617 22.0622 24.1188C22.0652 24.2069 22.0493 24.2945 22.0158 24.3756C21.9822 24.4568 21.9317 24.5294 21.8679 24.5886C21.806 24.6534 21.7317 24.7045 21.6497 24.7387C21.5676 24.7729 21.4795 24.7894 21.391 24.7872C21.2547 24.8011 21.1179 24.7677 21.0026 24.6923C20.8872 24.6169 20.8 24.504 20.7551 24.3718L20.3841 23.2608H18.0614L17.6904 24.3718C17.6466 24.5066 17.5583 24.6217 17.4408 24.6975C17.3232 24.7733 17.1836 24.805 17.0457 24.7872C16.8964 24.7913 16.7501 24.7435 16.6306 24.6517C16.5142 24.5571 16.4357 24.4222 16.4098 24.2724C16.4051 24.2214 16.4051 24.1699 16.4098 24.1188C16.3946 24.0292 16.3946 23.9376 16.4098 23.8479C16.4098 23.7486 16.4716 23.6401 16.507 23.5408L18.3793 18.347ZM19.2625 19.5304L18.4235 22.2401H20.0927L19.2625 19.5304Z" fill="#FEE500"/>
<path d="M22.2625 18.6362C22.2535 18.4335 22.3234 18.2355 22.4568 18.0853C22.5246 18.0153 22.606 17.9606 22.6958 17.9248C22.7855 17.8891 22.8816 17.8729 22.9779 17.8774C23.1433 17.8755 23.3048 17.9295 23.4371 18.031C23.5598 18.137 23.6413 18.2844 23.6667 18.4465C23.6754 18.5094 23.6754 18.5733 23.6667 18.6362V23.3874H26.0955C26.2638 23.3851 26.4293 23.432 26.5724 23.5228C26.6367 23.5633 26.692 23.6173 26.7346 23.6811C26.7772 23.7449 26.8062 23.8171 26.8197 23.8931C26.8197 23.8931 26.8197 23.9835 26.8197 24.0286C26.8239 24.1186 26.8068 24.2082 26.7699 24.29C26.733 24.3717 26.6774 24.4433 26.6077 24.4984C26.4538 24.6124 26.2679 24.6725 26.0778 24.6699H23.0927C22.9026 24.6824 22.7136 24.6318 22.5539 24.5255C22.4111 24.4163 22.316 24.2541 22.289 24.0739C22.2825 23.9746 22.2825 23.875 22.289 23.7757L22.2625 18.6362Z" fill="#FEE500"/>
<path d="M26.9795 18.6363C26.9742 18.4342 27.0435 18.2375 27.1738 18.0853C27.3061 17.9623 27.4759 17.8897 27.6545 17.8798C27.8331 17.8699 28.0095 17.9234 28.1541 18.0311C28.2794 18.1361 28.364 18.2834 28.3925 18.4465C28.3969 18.5097 28.3969 18.5732 28.3925 18.6363V20.8492L30.627 18.2117C30.7131 18.1217 30.8045 18.0373 30.9008 17.9589C30.9915 17.9036 31.0955 17.8754 31.2011 17.8775C31.3554 17.8766 31.5064 17.9239 31.6338 18.013C31.6939 18.0544 31.7452 18.1077 31.7846 18.1698C31.8241 18.2319 31.8509 18.3014 31.8635 18.3743C31.867 18.3922 31.867 18.4107 31.8635 18.4286C31.8592 18.4494 31.8592 18.4709 31.8635 18.4918C31.8631 18.5868 31.8388 18.6802 31.7928 18.7628C31.7459 18.8502 31.6896 18.9319 31.625 19.0066L30.1589 20.6505L31.9253 23.4506V23.5409C32.017 23.6704 32.0885 23.8137 32.1372 23.9655V24.0106C32.1474 24.1153 32.1327 24.2209 32.0942 24.3185C32.0558 24.416 31.9948 24.5025 31.9164 24.5706C31.7691 24.6845 31.5889 24.745 31.4042 24.7423C31.2815 24.7475 31.1596 24.7194 31.0509 24.6609C30.9333 24.5803 30.8364 24.4719 30.7683 24.3448L29.1256 21.6351L28.3396 22.4751V23.9835C28.3448 24.1856 28.2755 24.3823 28.1453 24.5345C28.0755 24.6042 27.9924 24.6587 27.9013 24.6945C27.8102 24.7302 27.7129 24.7465 27.6153 24.7423C27.4524 24.7458 27.2933 24.6915 27.1649 24.5887C27.0402 24.487 26.9555 24.3427 26.9265 24.1823C26.9177 24.1164 26.9177 24.0494 26.9265 23.9835L26.9795 18.6363Z" fill="#FEE500"/>
</svg>
