<svg width="43" height="43" viewBox="0 0 43 43" fill="none" xmlns="http://www.w3.org/2000/svg">
<circle cx="21.5" cy="21.5" r="21.5" fill="#E4EEFF"/>
<path d="M28.8686 14.1326C28.436 13.6972 27.9216 13.3516 27.3549 13.1158C26.7883 12.88 26.1806 12.7585 25.5668 12.7585C24.953 12.7585 24.3453 12.88 23.7787 13.1158C23.212 13.3516 22.6976 13.6972 22.2651 14.1326L20.4861 15.9115C20.3623 16.0483 20.2957 16.2274 20.3002 16.4118C20.3048 16.5963 20.3801 16.7719 20.5105 16.9024C20.641 17.0328 20.8166 17.1081 21.0011 17.1127C21.1855 17.1172 21.3647 17.0507 21.5014 16.9268L23.2803 15.1479C23.888 14.5438 24.71 14.2048 25.5668 14.2048C26.4236 14.2048 27.2457 14.5438 27.8533 15.1479C28.1546 15.4476 28.3936 15.8039 28.5568 16.1963C28.7199 16.5887 28.8039 17.0094 28.8039 17.4344C28.8039 17.8593 28.7199 18.2801 28.5568 18.6725C28.3936 19.0649 28.1546 19.4212 27.8533 19.7209L25.3108 22.2635C24.7031 22.8675 23.8811 23.2066 23.0242 23.2066C22.1674 23.2066 21.3454 22.8675 20.7377 22.2635C20.6723 22.1913 20.593 22.1332 20.5045 22.0927C20.4159 22.0521 20.3201 22.03 20.2228 22.0276C20.1254 22.0252 20.0286 22.0426 19.9382 22.0787C19.8478 22.1149 19.7657 22.169 19.6968 22.2379C19.628 22.3067 19.5739 22.3888 19.5377 22.4792C19.5016 22.5696 19.4841 22.6664 19.4865 22.7638C19.4889 22.8611 19.5111 22.957 19.5516 23.0455C19.5922 23.134 19.6503 23.2133 19.7225 23.2787C20.5985 24.1538 21.786 24.6453 23.0242 24.6453C24.2624 24.6453 25.45 24.1538 26.326 23.2787L28.8686 20.7361C29.304 20.3036 29.6496 19.7892 29.8854 19.2225C30.1212 18.6559 30.2426 18.0482 30.2426 17.4344C30.2426 16.8206 30.1212 16.2129 29.8854 15.6463C29.6496 15.0796 29.304 14.5652 28.8686 14.1326Z" fill="#4968F6"/>
<path d="M21.4993 26.0733L19.7204 27.8522C19.1097 28.4373 18.294 28.7599 17.4482 28.7509C16.6025 28.7418 15.7939 28.4018 15.1958 27.8037C14.5978 27.2056 14.2578 26.3971 14.2487 25.5513C14.2396 24.7056 14.5622 23.8899 15.1474 23.2792L17.6899 20.7366C18.2976 20.1325 19.1196 19.7935 19.9765 19.7935C20.8333 19.7935 21.6553 20.1325 22.263 20.7366C22.3997 20.8605 22.5788 20.927 22.7633 20.9225C22.9477 20.9179 23.1234 20.8426 23.2538 20.7122C23.3843 20.5817 23.4596 20.4061 23.4641 20.2216C23.4687 20.0372 23.4021 19.8581 23.2782 19.7213C22.4022 18.8463 21.2147 18.3547 19.9765 18.3547C18.7383 18.3547 17.5507 18.8463 16.6747 19.7213L14.1321 22.2639C13.675 22.6921 13.3087 23.2079 13.0549 23.7805C12.8012 24.3531 12.6651 24.971 12.6549 25.5972C12.6447 26.2235 12.7605 26.8454 12.9955 27.426C13.2305 28.0066 13.5798 28.534 14.0227 28.9769C14.4655 29.4198 14.993 29.7691 15.5736 30.0041C16.1542 30.239 16.7761 30.3549 17.4024 30.3446C18.0286 30.3344 18.6464 30.1984 19.2191 29.9446C19.7917 29.6909 20.3074 29.3245 20.7356 28.8674L22.5146 27.0885C22.6384 26.9518 22.705 26.7727 22.7005 26.5882C22.6959 26.4038 22.6206 26.2282 22.4902 26.0977C22.3597 25.9672 22.1841 25.8919 21.9996 25.8874C21.8152 25.8828 21.636 25.9494 21.4993 26.0733Z" fill="#4968F6"/>
</svg>
