<svg width="72" height="32" viewBox="0 0 72 32" fill="none" xmlns="http://www.w3.org/2000/svg">
<path d="M4.0817 25V8.03125H7.59733V22.0938H14.9098V25H4.0817ZM32.0426 16.5156C32.0426 22.0469 28.5973 25.2344 24.1208 25.2344C19.5973 25.2344 16.1755 22.0234 16.1755 16.5156C16.1755 10.9844 19.5973 7.79688 24.1208 7.79688C28.5973 7.79688 32.0426 10.9844 32.0426 16.5156ZM28.4567 16.5156C28.4567 12.8828 26.7458 10.9141 24.1208 10.9141C21.4958 10.9141 19.7614 12.8828 19.7614 16.5156C19.7614 20.1484 21.4958 22.1172 24.1208 22.1172C26.7458 22.1172 28.4567 20.1484 28.4567 16.5156ZM45.8473 13.4922C45.3786 11.8984 44.0895 10.9141 42.238 10.9141C39.613 10.9141 37.8317 12.9297 37.8317 16.4922C37.8317 20.0781 39.5661 22.1172 42.2614 22.1172C44.6872 22.1172 46.1286 20.7461 46.1755 18.6016H42.4958V15.9531H49.5739V18.0625C49.5739 22.5156 46.527 25.2344 42.238 25.2344C37.4801 25.2344 34.2458 21.9062 34.2458 16.5391C34.2458 11.0312 37.6911 7.79688 42.1676 7.79688C45.988 7.79688 48.9411 10.1406 49.4098 13.4922H45.8473ZM67.6911 16.5156C67.6911 22.0469 64.2458 25.2344 59.7692 25.2344C55.2458 25.2344 51.8239 22.0234 51.8239 16.5156C51.8239 10.9844 55.2458 7.79688 59.7692 7.79688C64.2458 7.79688 67.6911 10.9844 67.6911 16.5156ZM64.1051 16.5156C64.1051 12.8828 62.3942 10.9141 59.7692 10.9141C57.1442 10.9141 55.4098 12.8828 55.4098 16.5156C55.4098 20.1484 57.1442 22.1172 59.7692 22.1172C62.3942 22.1172 64.1051 20.1484 64.1051 16.5156Z" fill="black"/>
</svg>
