<svg width="131" height="24" viewBox="0 0 131 24" fill="none" xmlns="http://www.w3.org/2000/svg">
<path d="M130.474 22.1399C130.688 22.657 130.706 23.0672 130.527 23.3703C130.349 23.6913 130.001 23.8518 129.484 23.8518H125.097C124.58 23.8518 124.098 23.7003 123.653 23.3971C123.225 23.0939 122.904 22.6838 122.69 22.1666L119.694 15.2384H119.453V21.9794C119.453 22.55 119.301 23.0048 118.998 23.3436C118.695 23.6824 118.285 23.8518 117.768 23.8518H113.648C113.131 23.8518 112.721 23.6824 112.418 23.3436C112.114 23.0048 111.963 22.55 111.963 21.9794V1.9704C111.963 1.39973 112.114 0.944981 112.418 0.606149C112.721 0.267317 113.131 0.0979004 113.648 0.0979004H117.768C118.285 0.0979004 118.695 0.267317 118.998 0.606149C119.301 0.944981 119.453 1.39973 119.453 1.9704V8.71138H119.694L122.288 1.83665C122.485 1.31948 122.788 0.900398 123.198 0.579399C123.626 0.2584 124.098 0.0979004 124.616 0.0979004H129.003C129.52 0.0979004 129.868 0.2584 130.046 0.579399C130.242 0.900398 130.242 1.31948 130.046 1.83665L126.354 11.7609L130.474 22.1399Z" fill="url(#paint0_linear_250_1179)"/>
<path d="M92.291 1.9704C92.291 1.39973 92.4426 0.944981 92.7458 0.606149C93.0489 0.267317 93.4591 0.0979004 93.9763 0.0979004H98.2563C98.7734 0.0979004 99.1657 0.267317 99.4332 0.606149C99.7007 0.944981 99.8702 1.39973 99.9415 1.9704C100.245 4.34222 100.396 6.82997 100.396 9.43363C100.414 12.0373 100.227 14.7212 99.8345 17.4854H102.402C102.741 14.6855 102.911 12.0373 102.911 9.54063C102.911 7.04397 102.741 4.52056 102.402 1.9704C102.331 1.39973 102.465 0.944981 102.804 0.606149C103.143 0.267317 103.571 0.0979004 104.088 0.0979004H108.475C108.992 0.0979004 109.402 0.267317 109.705 0.606149C110.008 0.944981 110.16 1.39973 110.16 1.9704V18.2611C110.16 20.1514 109.687 21.5781 108.742 22.5411C107.815 23.5041 106.513 23.9856 104.837 23.9856H97.6142C95.9379 23.9856 94.6272 23.5041 93.682 22.5411C92.7547 21.5781 92.291 20.1514 92.291 18.2611V1.9704Z" fill="url(#paint1_linear_250_1179)"/>
<path d="M90.5954 21.9794C90.5954 22.55 90.4438 23.0048 90.1406 23.3436C89.8375 23.6824 89.4273 23.8518 88.9101 23.8518H76.6052C76.088 23.8518 75.6778 23.6824 75.3747 23.3436C75.0715 23.0048 74.9199 22.55 74.9199 21.9794V1.9704C74.9199 1.39973 75.0715 0.944981 75.3747 0.606149C75.6778 0.267317 76.088 0.0979004 76.6052 0.0979004H88.9101C89.4273 0.0979004 89.8375 0.267317 90.1406 0.606149C90.4438 0.944981 90.5954 1.39973 90.5954 1.9704V4.69889C90.5954 5.26956 90.4438 5.70647 90.1406 6.00964C89.8375 6.29497 89.4273 6.48222 88.9101 6.57139C87.858 6.76755 86.8147 6.85672 85.7804 6.83889C84.7461 6.82105 83.7028 6.73188 82.6507 6.57139V8.79163C84.7371 9.3088 86.8236 9.3088 88.9101 8.79163C89.1598 8.73813 89.3827 8.75596 89.5789 8.84513C89.7929 8.91646 89.9712 9.0413 90.1139 9.21963C90.2744 9.39796 90.3903 9.61196 90.4616 9.86163C90.5508 10.1113 90.5954 10.3788 90.5954 10.6641V13.1251C90.5954 13.6958 90.4349 14.1238 90.1139 14.4091C89.8107 14.6945 89.4095 14.8906 88.9101 14.9976C87.8401 15.2473 86.788 15.3632 85.7536 15.3454C84.7371 15.3275 83.7028 15.2116 82.6507 14.9976V17.3784C83.7028 17.628 84.7461 17.7529 85.7804 17.7529C86.8147 17.7529 87.858 17.628 88.9101 17.3784C89.1598 17.3249 89.3827 17.3427 89.5789 17.4319C89.7929 17.5032 89.9712 17.628 90.1139 17.8064C90.2744 17.9847 90.3903 18.1987 90.4616 18.4484C90.5508 18.698 90.5954 18.9655 90.5954 19.2509V21.9794Z" fill="url(#paint2_linear_250_1179)"/>
<path d="M57.5622 23.8518C57.045 23.8518 56.6349 23.6824 56.3317 23.3436C56.0285 23.0048 55.877 22.55 55.877 21.9794V1.9704C55.877 1.39973 56.0285 0.944981 56.3317 0.606149C56.6349 0.267317 57.045 0.0979004 57.5622 0.0979004H67.6202C68.4405 0.0979004 69.1895 0.222733 69.8672 0.472399C70.5627 0.722066 71.1512 1.08765 71.6327 1.56915C72.132 2.05065 72.5154 2.64806 72.7829 3.36139C73.0682 4.07472 73.2109 4.89506 73.2109 5.82239V18.1274C73.2109 19.0725 73.0682 19.9018 72.7829 20.6151C72.5154 21.3284 72.132 21.9258 71.6327 22.4073C71.1512 22.8888 70.5627 23.2455 69.8672 23.4773C69.1895 23.727 68.4405 23.8518 67.6202 23.8518H57.5622ZM64.7847 17.3516C65.1235 17.3516 65.3732 17.2446 65.5337 17.0306C65.712 16.7988 65.8368 16.4778 65.9082 16.0676C66.0152 15.4613 66.0954 14.8104 66.1489 14.1149C66.2024 13.4015 66.2292 12.6882 66.2292 11.9749C66.2292 11.2615 66.2024 10.5571 66.1489 9.86163C66.0954 9.16613 66.0152 8.5063 65.9082 7.88213C65.819 7.47197 65.6942 7.15988 65.5337 6.94589C65.3732 6.71405 65.1235 6.59814 64.7847 6.59814H63.1529C63.4739 8.3993 63.6255 10.1915 63.6077 11.9749C63.6077 13.7582 63.4561 15.5504 63.1529 17.3516H64.7847Z" fill="url(#paint3_linear_250_1179)"/>
<path d="M49.5144 21.9794C49.5144 22.55 49.3628 23.0048 49.0597 23.3436C48.7565 23.6824 48.3463 23.8518 47.8292 23.8518H42.9607C42.4435 23.8518 42.0333 23.6824 41.7302 23.3436C41.427 23.0048 41.2754 22.55 41.2754 21.9794V14.4091L36.0057 1.78315C35.7917 1.26598 35.7649 0.855816 35.9254 0.55265C36.1038 0.249484 36.4515 0.0979004 36.9687 0.0979004H41.2754C41.7926 0.0979004 42.2563 0.2584 42.6664 0.579399C43.0766 0.900398 43.3798 1.31948 43.5759 1.83665L45.2612 6.81214H45.5019L47.2139 1.83665C47.4101 1.31948 47.7133 0.900398 48.1234 0.579399C48.5336 0.2584 48.9972 0.0979004 49.5144 0.0979004H53.8212C54.3383 0.0979004 54.6772 0.249484 54.8377 0.55265C55.016 0.855816 54.9981 1.26598 54.7842 1.78315L49.5144 14.4091V21.9794Z" fill="url(#paint4_linear_250_1179)"/>
<path d="M35.0055 21.9794C35.0055 22.55 34.854 23.0048 34.5508 23.3436C34.2476 23.6824 33.8375 23.8518 33.3203 23.8518H21.0153C20.4982 23.8518 20.088 23.6824 19.7848 23.3436C19.4817 23.0048 19.3301 22.55 19.3301 21.9794V1.9704C19.3301 1.39973 19.4817 0.944981 19.7848 0.606149C20.088 0.267317 20.4982 0.0979004 21.0153 0.0979004H33.3203C33.8375 0.0979004 34.2476 0.267317 34.5508 0.606149C34.854 0.944981 35.0055 1.39973 35.0055 1.9704V4.69889C35.0055 5.26956 34.854 5.70647 34.5508 6.00964C34.2476 6.29497 33.8375 6.48222 33.3203 6.57139C32.2681 6.76755 31.2249 6.85672 30.1906 6.83889C29.1562 6.82105 28.113 6.73188 27.0608 6.57139V8.79163C29.1473 9.3088 31.2338 9.3088 33.3203 8.79163C33.57 8.73813 33.7929 8.75596 33.989 8.84513C34.203 8.91646 34.3814 9.0413 34.524 9.21963C34.6845 9.39796 34.8005 9.61196 34.8718 9.86163C34.961 10.1113 35.0055 10.3788 35.0055 10.6641V13.1251C35.0055 13.6958 34.845 14.1238 34.524 14.4091C34.2209 14.6945 33.8196 14.8906 33.3203 14.9976C32.2503 15.2473 31.1981 15.3632 30.1638 15.3454C29.1473 15.3275 28.113 15.2116 27.0608 14.9976V17.3784C28.113 17.628 29.1562 17.7529 30.1906 17.7529C31.2249 17.7529 32.2681 17.628 33.3203 17.3784C33.57 17.3249 33.7929 17.3427 33.989 17.4319C34.203 17.5032 34.3814 17.628 34.524 17.8064C34.6845 17.9847 34.8005 18.1987 34.8718 18.4484C34.961 18.698 35.0055 18.9655 35.0055 19.2509V21.9794Z" fill="url(#paint5_linear_250_1179)"/>
<path d="M18.511 22.1399C18.725 22.657 18.7428 23.0672 18.5645 23.3703C18.3861 23.6913 18.0384 23.8518 17.5212 23.8518H13.1342C12.6171 23.8518 12.1356 23.7003 11.6897 23.3971C11.2617 23.0939 10.9407 22.6838 10.7267 22.1666L7.73073 15.2384H7.48998V21.9794C7.48998 22.55 7.3384 23.0048 7.03523 23.3436C6.73207 23.6824 6.3219 23.8518 5.80474 23.8518H1.68525C1.16808 23.8518 0.757915 23.6824 0.454749 23.3436C0.151583 23.0048 0 22.55 0 21.9794V1.9704C0 1.39973 0.151583 0.944981 0.454749 0.606149C0.757915 0.267317 1.16808 0.0979004 1.68525 0.0979004H5.80474C6.3219 0.0979004 6.73207 0.267317 7.03523 0.606149C7.3384 0.944981 7.48998 1.39973 7.48998 1.9704V8.71138H7.73073L10.3255 1.83665C10.5216 1.31948 10.8248 0.900398 11.235 0.579399C11.663 0.2584 12.1356 0.0979004 12.6527 0.0979004H17.0397C17.5569 0.0979004 17.9046 0.2584 18.083 0.579399C18.2791 0.900398 18.2791 1.31948 18.083 1.83665L14.3915 11.7609L18.511 22.1399Z" fill="url(#paint6_linear_250_1179)"/>
<defs>
<linearGradient id="paint0_linear_250_1179" x1="-0.909721" y1="13.7404" x2="131.502" y2="13.7404" gradientUnits="userSpaceOnUse">
<stop stop-color="#576DF2"/>
<stop offset="1" stop-color="#A44AFD"/>
</linearGradient>
<linearGradient id="paint1_linear_250_1179" x1="-0.91037" y1="13.7404" x2="131.502" y2="13.7404" gradientUnits="userSpaceOnUse">
<stop stop-color="#576DF2"/>
<stop offset="1" stop-color="#A44AFD"/>
</linearGradient>
<linearGradient id="paint2_linear_250_1179" x1="-0.910306" y1="13.7404" x2="131.502" y2="13.7404" gradientUnits="userSpaceOnUse">
<stop stop-color="#576DF2"/>
<stop offset="1" stop-color="#A44AFD"/>
</linearGradient>
<linearGradient id="paint3_linear_250_1179" x1="-0.909609" y1="13.7404" x2="131.503" y2="13.7404" gradientUnits="userSpaceOnUse">
<stop stop-color="#576DF2"/>
<stop offset="1" stop-color="#A44AFD"/>
</linearGradient>
<linearGradient id="paint4_linear_250_1179" x1="-0.910474" y1="13.7404" x2="131.502" y2="13.7404" gradientUnits="userSpaceOnUse">
<stop stop-color="#576DF2"/>
<stop offset="1" stop-color="#A44AFD"/>
</linearGradient>
<linearGradient id="paint5_linear_250_1179" x1="-0.91043" y1="13.7404" x2="131.502" y2="13.7404" gradientUnits="userSpaceOnUse">
<stop stop-color="#576DF2"/>
<stop offset="1" stop-color="#A44AFD"/>
</linearGradient>
<linearGradient id="paint6_linear_250_1179" x1="-0.909498" y1="13.7404" x2="131.503" y2="13.7404" gradientUnits="userSpaceOnUse">
<stop stop-color="#576DF2"/>
<stop offset="1" stop-color="#6C3BDA"/>
</linearGradient>
</defs>
</svg>
