<svg width="128" height="166" viewBox="0 0 128 166" fill="none" xmlns="http://www.w3.org/2000/svg">
<path d="M32.9827 129.047C36.8521 129.047 39.9889 123.322 39.9889 116.26C39.9889 109.199 36.8521 103.474 32.9827 103.474C29.1133 103.474 25.9766 109.199 25.9766 116.26C25.9766 123.322 29.1133 129.047 32.9827 129.047Z" fill="white"/>
<path d="M79.0772 91.5881C64.9842 90.9611 33.8523 88.2567 19.6858 87.0727C17.5139 86.8204 17.1216 85.9692 17.4649 84.9112C17.7696 83.9759 18.6524 82.8795 19.3881 81.8916C21.7001 78.984 25.6866 74.4615 28.6082 71.025C30.64 68.6674 32.5211 66.4255 34.0905 64.6634C35.4988 63.08 37.1627 61.5141 38.7987 60.8135C39.8951 60.3091 41.1037 60.0288 42.526 59.8922C43.7731 59.7696 45.1883 59.7556 46.7822 59.7801C61.7019 60.267 82.4997 61.0447 93.023 61.4826C94.193 61.5877 95.4821 61.7523 95.899 62.7122C95.9901 62.9119 96.0391 63.1501 96.0391 63.4268V63.4548C96.0461 65.4411 93.6991 70.0792 92.5676 72.6364C90.8335 76.4163 89.082 80.3012 87.3795 83.9689C86.2445 86.3931 85.2636 88.3443 84.1847 89.5844C83.6767 90.1869 83.1267 90.6178 82.5277 90.9261C81.5223 91.4375 80.3768 91.5916 79.0772 91.5881Z" fill="#D9D9D9"/>
<path d="M92.5672 72.6364C93.6987 70.0792 96.0458 65.4411 96.0388 63.4548V63.4268C96.0388 63.15 95.9897 62.9118 95.8986 62.7122C105.508 73.5542 112.833 90.6843 118.851 103.176C120.557 106.897 122.105 110.796 121.853 114.873C120.539 127.765 109.704 146.947 100.635 155.887C99.132 157.467 97.5871 158.574 95.9302 159.401C95.3942 143.784 94.6305 130.56 91.5233 115.745C89.7017 105.867 85.4769 94.0998 82.5273 90.926C83.1264 90.6178 83.6764 90.1869 84.1843 89.5843C85.2633 88.3443 86.2441 86.393 87.3791 83.9689C89.0816 80.3012 90.8332 76.4162 92.5672 72.6364Z" fill="#D9D9D9"/>
<path d="M65.9124 129.047C69.7818 129.047 72.9186 123.322 72.9186 116.26C72.9186 109.199 69.7818 103.474 65.9124 103.474C62.043 103.474 58.9062 109.199 58.9062 116.26C58.9062 123.322 62.043 129.047 65.9124 129.047Z" fill="white"/>
<path d="M32.9835 129.047C36.8544 129.047 39.9896 123.323 39.9896 116.26C39.9896 109.198 36.8544 103.474 32.9835 103.474C29.1125 103.474 25.9773 109.198 25.9773 116.26C25.9773 123.323 29.1125 129.047 32.9835 129.047ZM58.9063 116.26C58.9063 123.323 62.0416 129.047 65.9125 129.047C69.7834 129.047 72.9187 123.323 72.9187 116.26C72.9187 109.198 69.7834 103.474 65.9125 103.474C62.0416 103.474 58.9063 109.198 58.9063 116.26ZM5.29855 128.809C9.33411 114.099 12.4063 98.9026 17.4192 84.8938L17.4648 84.9113C17.1215 85.9692 17.5138 86.8205 19.6857 87.0727C33.8522 88.2568 64.9842 90.9611 79.0771 91.5882C80.3767 91.5917 81.5222 91.4376 82.5276 90.9261C85.4772 94.0999 89.702 105.867 91.5236 115.745C94.6308 130.56 95.3945 143.784 95.9304 159.401C92.9633 160.893 89.6424 161.506 85.5473 162.389C73.5072 164.827 58.8327 165.917 46.2987 165.23C33.8242 164.593 24.7897 162.838 13.1104 159.825C10.5182 159.152 8.16408 158.473 5.6979 157.702C2.8639 156.781 1.46267 156.336 1.09835 153.358C0.797083 149.659 1.45917 146.058 2.11074 142.285C2.95498 137.846 4.04795 133.408 5.29855 128.809ZM72.6069 143.22C72.6069 138.6 60.7174 138.456 48.6002 138.456C36.483 138.456 26.2155 139.076 26.2155 143.697C26.2155 148.317 36.0381 154.293 48.1518 154.293C60.2655 154.293 72.6069 147.841 72.6069 143.22Z" fill="#D9D9D9"/>
<path d="M48.6015 138.456C60.7187 138.456 72.6082 138.599 72.6082 143.22C72.6082 147.841 60.2703 154.293 48.1531 154.293C36.0359 154.293 26.2168 148.317 26.2168 143.696C26.2168 139.076 36.4843 138.456 48.6015 138.456Z" fill="#D9D9D9"/>
<path fill-rule="evenodd" clip-rule="evenodd" d="M42.4767 59.369C43.7545 59.2434 45.194 59.23 46.7919 59.2545L46.7965 59.2546L46.801 59.2548C61.7221 59.7417 82.5215 60.5195 93.0465 60.9574L93.0591 60.958L93.0716 60.9591C93.6521 61.0112 94.3251 61.082 94.9118 61.2784C95.5034 61.4764 96.0884 61.8296 96.3806 62.4982C96.5068 62.7765 96.5662 63.0898 96.5662 63.4267V63.4528C96.5662 63.4534 96.5662 63.4539 96.5662 63.4545C96.568 64.035 96.4018 64.7603 96.1618 65.525C95.9179 66.3016 95.5828 67.1646 95.2162 68.0353C94.7556 69.1293 94.2305 70.2686 93.7671 71.274C93.4993 71.8552 93.252 72.3917 93.0497 72.8489L93.0483 72.8521L93.0468 72.8554C92.3922 74.2822 91.7344 75.7258 91.0773 77.1676C89.9961 79.5402 88.9169 81.9082 87.8577 84.19L87.857 84.1916C86.7297 86.5994 85.7203 88.6203 84.5854 89.926C84.0352 90.5779 83.4319 91.0524 82.7698 91.3931L82.7676 91.3942C81.6551 91.9602 80.4134 92.117 79.0774 92.1134L79.0664 92.1134L79.0555 92.1129C66.6758 91.5621 41.1712 89.4107 25.5437 88.0925C23.3641 87.9086 21.3766 87.741 19.6437 87.5961L19.6353 87.5954L19.6269 87.5944C18.507 87.4644 17.6969 87.1686 17.2369 86.6382C16.7397 86.0652 16.7664 85.3661 16.9667 84.7489L16.9669 84.7483C17.1431 84.2077 17.4746 83.6498 17.8324 83.125C18.1029 82.7281 18.407 82.3243 18.694 81.9431C18.7879 81.8185 18.8799 81.6963 18.9683 81.5776L18.9732 81.5709L18.9784 81.5644C20.5726 79.5596 22.9625 76.7868 25.246 74.1375C26.284 72.933 27.3001 71.7541 28.2095 70.6845L28.2118 70.6818L28.2118 70.6818C28.9103 69.8713 29.5929 69.0722 30.2519 68.3007C31.5031 66.836 32.6695 65.4705 33.6997 64.3139M42.4767 59.369C41.0175 59.5093 39.7498 59.7992 38.587 60.3331C36.839 61.0839 35.1125 62.7254 33.6998 64.3138M46.7712 60.3053C45.1835 60.2809 43.7941 60.2955 42.579 60.415L42.5778 60.4151C41.1955 60.5479 40.0481 60.8177 39.0199 61.2907L39.0136 61.2936L39.0072 61.2964C37.4856 61.948 35.8868 63.4361 34.4848 65.0124L34.4846 65.0127C33.4612 66.1617 32.3073 67.5126 31.0614 68.9711C30.4012 69.7441 29.7151 70.5472 29.009 71.3666C28.0877 72.4503 27.0642 73.6378 26.0221 74.8468C23.7487 77.4844 21.3871 80.2243 19.8061 82.212C19.7119 82.3385 19.6167 82.4649 19.5217 82.5912C19.2384 82.9674 18.956 83.3424 18.7007 83.7169C18.3572 84.2209 18.095 84.6787 17.9663 85.0733M46.7712 60.3053C61.6831 60.792 82.4656 61.5691 92.9901 62.0069C93.575 62.0597 94.1269 62.1239 94.5783 62.275C95.0266 62.4251 95.2934 62.633 95.4187 62.9213L95.4206 62.9257L95.4226 62.9301C95.4773 63.0501 95.5153 63.2117 95.5153 63.4267V63.4547L95.5153 63.4565C95.5168 63.8689 95.3923 64.4675 95.1591 65.2103C94.9294 65.9418 94.6084 66.7706 94.2476 67.6274C93.7909 68.7122 93.2853 69.8088 92.8289 70.7987C92.5586 71.3849 92.3055 71.9337 92.0901 72.4204C91.4335 73.8517 90.7752 75.2963 90.1182 76.7378C89.0387 79.1068 87.9629 81.4674 86.9051 83.7463C85.7634 86.1847 84.8118 88.0648 83.7899 89.2393L83.7872 89.2424L83.7846 89.2455C83.3199 89.7967 82.8246 90.1828 82.2902 90.458C81.3947 90.9133 80.3492 91.065 79.0912 91.0625C66.7308 90.512 41.2638 88.3638 25.6355 87.0455C23.4588 86.8619 21.4728 86.6944 19.7398 86.5496C18.6936 86.427 18.2235 86.1718 18.0307 85.9496C17.8745 85.7695 17.8233 85.514 17.9663 85.0733" fill="white"/>
<path fill-rule="evenodd" clip-rule="evenodd" d="M96.2928 62.362L96.294 62.3634C104.577 71.7098 111.169 85.6876 116.657 97.3266C117.577 99.277 118.466 101.162 119.326 102.948L119.329 102.953L119.331 102.957C121.037 106.678 122.641 110.684 122.38 114.905L122.379 114.916L122.378 114.926C121.711 121.47 118.639 129.558 114.618 137.109C110.597 144.661 105.594 151.737 101.012 156.256C99.4691 157.876 97.8773 159.017 96.1684 159.87C93.4307 161.247 90.4005 161.892 86.8595 162.646C86.466 162.73 86.0663 162.815 85.6599 162.902L85.6567 162.903L85.6535 162.904C73.5704 165.351 58.8521 166.443 46.2738 165.755C33.7535 165.115 24.6826 163.352 12.9811 160.333L12.9804 160.333C10.3791 159.658 8.01671 158.976 5.54306 158.203L5.5402 158.202L5.43226 158.167C4.09559 157.733 2.96621 157.366 2.14613 156.712C1.25376 155.999 0.771221 154.995 0.578668 153.422L0.577376 153.411L0.576512 153.4C0.281562 149.779 0.891672 146.256 1.51397 142.662C1.54093 142.507 1.56791 142.351 1.59484 142.195L1.59559 142.191L1.59643 142.186C2.44413 137.73 3.54081 133.277 4.79339 128.67L4.79371 128.669C6.10464 123.891 7.31654 119.049 8.52857 114.206C11.0345 104.193 13.541 94.1782 16.9245 84.7218C16.948 84.6511 16.9754 84.5692 17.0072 84.4857L17.9892 84.8598C17.9658 84.9213 17.9447 84.9844 17.9196 85.0596L17.9178 85.0651L17.9159 85.0705C14.5485 94.4807 12.064 104.409 9.56537 114.394C8.35039 119.249 7.13207 124.118 5.8073 128.947C4.55917 133.537 3.4703 137.96 2.62968 142.378C2.60559 142.518 2.5815 142.657 2.55748 142.796C1.92973 146.423 1.34133 149.823 1.6231 153.304C1.79558 154.701 2.19534 155.406 2.80165 155.89C3.45989 156.415 4.40946 156.73 5.85909 157.201C8.31686 157.969 10.6619 158.646 13.2443 159.316C24.901 162.323 33.8989 164.07 46.3274 164.705L46.3293 164.705C58.8176 165.389 73.4459 164.303 85.4418 161.874C85.8441 161.788 86.2379 161.704 86.6238 161.621C90.195 160.86 93.0867 160.244 95.6962 158.931L95.6977 158.93C97.3001 158.131 98.7955 157.061 100.256 155.525L100.262 155.519L100.268 155.513C104.754 151.091 109.701 144.108 113.691 136.615C117.681 129.12 120.682 121.176 121.331 114.83C121.571 110.902 120.081 107.115 118.378 103.4C117.509 101.598 116.615 99.7026 115.693 97.7466C110.197 86.0956 103.681 72.2836 95.5084 63.0614C95.3331 62.8651 95.1597 62.6708 94.9865 62.4804L95.7642 61.7734C95.9411 61.9681 96.118 62.1662 96.2928 62.362Z" fill="white"/>
<path fill-rule="evenodd" clip-rule="evenodd" d="M82.3924 91.0171C82.4262 90.9833 82.4646 90.9449 82.508 90.9015C82.8796 90.53 82.8796 90.53 82.8796 90.53L82.8803 90.5308L82.8812 90.5317L82.8833 90.5338L82.8888 90.5394C82.8929 90.5436 82.8984 90.5495 82.9047 90.5564C82.9088 90.5609 82.9183 90.5713 82.93 90.5857C83.7164 91.4383 84.5549 92.8178 85.3942 94.5216C86.2444 96.2475 87.1133 98.3435 87.9442 100.643C89.605 105.239 91.1239 110.675 92.0405 115.644C95.1564 130.502 95.9209 143.763 96.457 159.383L96.4573 159.392V159.401C96.4573 159.46 96.4595 159.509 96.4622 159.57C96.464 159.608 96.4659 159.651 96.4675 159.703L95.4171 159.737C95.4163 159.712 95.4151 159.682 95.4136 159.649C95.4105 159.576 95.4067 159.488 95.4064 159.41C94.8706 143.803 94.1076 130.619 91.0107 115.853L91.0093 115.847L91.0082 115.841C90.103 110.932 88.5994 105.549 86.9558 101C86.1341 98.726 85.2799 96.6678 84.4514 94.986C83.6179 93.2938 82.8279 92.0195 82.1441 91.2838L82.1153 91.2528L82.0918 91.2175C82.1035 91.2351 82.1134 91.2473 82.1171 91.2518C82.1218 91.2575 82.1253 91.2614 82.1271 91.2633C82.129 91.2654 82.1306 91.2671 82.1318 91.2684L82.1339 91.2705L82.1351 91.2717L82.1357 91.2724L82.1363 91.273C82.1364 91.273 82.1364 91.2731 82.3924 91.0171Z" fill="white"/>
<path d="M40.748 148.687L52.8856 136.549" stroke="white" stroke-width="3" stroke-linecap="round"/>
<path d="M40.7852 136.663L52.9227 148.8" stroke="white" stroke-width="3" stroke-linecap="round"/>
<path fill-rule="evenodd" clip-rule="evenodd" d="M76.882 17.6067C79.8929 7.90641 90.1977 2.48315 99.8985 5.49425L109.935 8.60969C119.636 11.6208 125.059 21.9259 122.048 31.6262C119.037 41.3266 108.732 46.7498 99.0313 43.7387L90.9048 52.2201L88.9945 40.6233C79.2937 37.6122 73.871 27.3071 76.882 17.6067ZM89.6442 25.2361C91.261 25.738 92.9783 24.8346 93.4803 23.2174C93.6324 22.7273 93.655 22.2274 93.5681 21.7545C93.3679 20.6697 92.5879 19.7309 91.4615 19.3813C90.5271 19.0912 89.5593 19.2708 88.812 19.7857C88.2662 20.1607 87.8374 20.7172 87.6254 21.4C87.1234 23.0173 88.0273 24.7342 89.6442 25.2361ZM101.844 25.8135C101.342 27.4308 99.6251 28.3342 98.0082 27.8323C96.3914 27.3304 95.4875 25.6135 95.9895 23.9962C96.1031 23.6303 96.2786 23.3015 96.5006 23.0176C96.7003 22.7608 96.9378 22.5408 97.2021 22.3631C97.9456 21.8632 98.9022 21.6908 99.8256 21.9775C101.442 22.4793 102.346 24.1963 101.844 25.8135ZM106.372 30.4285C107.989 30.9304 109.706 30.027 110.208 28.4097C110.557 27.2858 110.227 26.1141 109.45 25.3357C109.11 24.9936 108.683 24.7268 108.19 24.5737C106.573 24.0718 104.856 24.9751 104.354 26.5924C103.852 28.2097 104.755 29.9266 106.372 30.4285Z" fill="#D9D9D9"/>
</svg>
