<svg width="39" height="40" viewBox="0 0 39 40" fill="none" xmlns="http://www.w3.org/2000/svg">
<path fill-rule="evenodd" clip-rule="evenodd" d="M0 15.7326C0 7.3565 6.79023 0.565918 15.1667 0.565918H23.8333C32.2098 0.565918 39 7.3565 39 15.7326C39 24.1087 32.2098 30.8993 23.8333 30.8993L19.5063 39.5659L15.1667 30.8993C6.79023 30.8993 0 24.1087 0 15.7326ZM11.9167 18.6215C13.3128 18.6215 14.4444 17.4902 14.4444 16.0937C14.4444 15.6705 14.3401 15.2713 14.156 14.9201C13.7332 14.1146 12.8893 13.5659 11.9167 13.5659C11.1098 13.5659 10.3915 13.944 9.92879 14.5322C9.5906 14.961 9.38889 15.5041 9.38889 16.0937C9.38889 17.4902 10.5205 18.6215 11.9167 18.6215ZM21.6667 16.0937C21.6667 17.4902 20.535 18.6215 19.1389 18.6215C17.7428 18.6215 16.6111 17.4902 16.6111 16.0937C16.6111 15.7777 16.6689 15.4759 16.7744 15.198C16.8689 14.9469 17.0022 14.7155 17.1669 14.511C17.6303 13.9355 18.3416 13.5659 19.1389 13.5659C20.535 13.5659 21.6667 14.6972 21.6667 16.0937ZM26.3611 18.6215C27.7572 18.6215 28.8889 17.4902 28.8889 16.0937C28.8889 15.1232 28.3423 14.2811 27.5404 13.8579C27.1884 13.6717 26.7871 13.5659 26.3611 13.5659C24.965 13.5659 23.8333 14.6972 23.8333 16.0937C23.8333 17.4902 24.965 18.6215 26.3611 18.6215Z" fill="#4968F6"/>
</svg>