<svg width="30" height="31" viewBox="0 0 30 31" fill="none" xmlns="http://www.w3.org/2000/svg">
<g filter="url(#filter0_d_254_2195)">
<path d="M20.947 16.6584L25.2297 20.9411L23.8155 22.3553L19.5328 18.0726C17.9929 19.3046 16.04 20.0416 13.916 20.0416C8.94802 20.0416 4.91602 16.0096 4.91602 11.0416C4.91602 6.07363 8.94802 2.04163 13.916 2.04163C18.884 2.04163 22.916 6.07363 22.916 11.0416C22.916 13.1656 22.179 15.1185 20.947 16.6584ZM18.9407 15.9164C20.1635 14.6562 20.916 12.9372 20.916 11.0416C20.916 7.17413 17.7835 4.04163 13.916 4.04163C10.0485 4.04163 6.91602 7.17413 6.91602 11.0416C6.91602 14.9091 10.0485 18.0416 13.916 18.0416C15.8116 18.0416 17.5306 17.2891 18.7908 16.0663L18.9407 15.9164Z" fill="#A5A5A5"/>
</g>
<defs>
<filter id="filter0_d_254_2195" x="-1.08398" y="0.041626" width="32" height="32" filterUnits="userSpaceOnUse" color-interpolation-filters="sRGB">
<feFlood flood-opacity="0" result="BackgroundImageFix"/>
<feColorMatrix in="SourceAlpha" type="matrix" values="0 0 0 0 0 0 0 0 0 0 0 0 0 0 0 0 0 0 127 0" result="hardAlpha"/>
<feOffset dy="4"/>
<feGaussianBlur stdDeviation="2"/>
<feComposite in2="hardAlpha" operator="out"/>
<feColorMatrix type="matrix" values="0 0 0 0 0 0 0 0 0 0 0 0 0 0 0 0 0 0 0.25 0"/>
<feBlend mode="normal" in2="BackgroundImageFix" result="effect1_dropShadow_254_2195"/>
<feBlend mode="normal" in="SourceGraphic" in2="effect1_dropShadow_254_2195" result="shape"/>
</filter>
</defs>
</svg>
