<svg width="25" height="25" viewBox="0 0 25 25" fill="none" xmlns="http://www.w3.org/2000/svg">
<path d="M18.5 8.5C20.1569 8.5 21.5 7.15685 21.5 5.5C21.5 3.84315 20.1569 2.5 18.5 2.5C16.8431 2.5 15.5 3.84315 15.5 5.5C15.5 7.15685 16.8431 8.5 18.5 8.5Z" stroke="white" stroke-width="2" stroke-linecap="round" stroke-linejoin="round"/>
<path d="M6.5 15.5C8.15685 15.5 9.5 14.1569 9.5 12.5C9.5 10.8431 8.15685 9.5 6.5 9.5C4.84315 9.5 3.5 10.8431 3.5 12.5C3.5 14.1569 4.84315 15.5 6.5 15.5Z" stroke="white" stroke-width="2" stroke-linecap="round" stroke-linejoin="round"/>
<path d="M18.5 22.5C20.1569 22.5 21.5 21.1569 21.5 19.5C21.5 17.8431 20.1569 16.5 18.5 16.5C16.8431 16.5 15.5 17.8431 15.5 19.5C15.5 21.1569 16.8431 22.5 18.5 22.5Z" stroke="white" stroke-width="2" stroke-linecap="round" stroke-linejoin="round"/>
<path d="M9.08984 14.01L15.9198 17.99" stroke="white" stroke-width="2" stroke-linecap="round" stroke-linejoin="round"/>
<path d="M15.9098 7.01001L9.08984 10.99" stroke="white" stroke-width="2" stroke-linecap="round" stroke-linejoin="round"/>
</svg>
