<svg width="43" height="43" viewBox="0 0 43 43" fill="none" xmlns="http://www.w3.org/2000/svg">
<rect width="43" height="43" rx="21.5" fill="none"/>
<path d="M27.5 17.5C29.1569 17.5 30.5 16.1569 30.5 14.5C30.5 12.8431 29.1569 11.5 27.5 11.5C25.8431 11.5 24.5 12.8431 24.5 14.5C24.5 16.1569 25.8431 17.5 27.5 17.5Z" stroke="white" stroke-width="2" stroke-linecap="round" stroke-linejoin="round"/>
<path d="M15.5 24.5C17.1569 24.5 18.5 23.1569 18.5 21.5C18.5 19.8431 17.1569 18.5 15.5 18.5C13.8431 18.5 12.5 19.8431 12.5 21.5C12.5 23.1569 13.8431 24.5 15.5 24.5Z" stroke="white" stroke-width="2" stroke-linecap="round" stroke-linejoin="round"/>
<path d="M27.5 31.5C29.1569 31.5 30.5 30.1569 30.5 28.5C30.5 26.8431 29.1569 25.5 27.5 25.5C25.8431 25.5 24.5 26.8431 24.5 28.5C24.5 30.1569 25.8431 31.5 27.5 31.5Z" stroke="white" stroke-width="2" stroke-linecap="round" stroke-linejoin="round"/>
<path d="M18.0898 23.01L24.9198 26.99" stroke="white" stroke-width="2" stroke-linecap="round" stroke-linejoin="round"/>
<path d="M24.9098 16.01L18.0898 19.99" stroke="white" stroke-width="2" stroke-linecap="round" stroke-linejoin="round"/>
</svg>
