<svg width="19" height="17" viewBox="0 0 19 17" fill="none" xmlns="http://www.w3.org/2000/svg">
<path d="M11.5575 5.83355H16.6243C17.4988 5.83355 18.2077 6.54244 18.2077 7.41686V9.08285C18.2077 9.28963 18.1671 9.49444 18.0885 9.6857L15.6387 15.635C15.5166 15.9316 15.2275 16.1252 14.9067 16.1252H1.58268C1.14546 16.1252 0.791016 15.7708 0.791016 15.3335V7.41686C0.791016 6.97966 1.14546 6.62522 1.58268 6.62522H4.33914C4.59638 6.62522 4.83756 6.50024 4.98591 6.29009L9.30317 0.173949C9.41599 0.0141358 9.62863 -0.0393081 9.80359 0.048175L11.2397 0.766238C12.0723 1.18252 12.5022 2.12269 12.2726 3.02474L11.5575 5.83355ZM5.54102 7.88197V14.5419H14.3765L16.6243 9.08285V7.41686H11.5575C10.5246 7.41686 9.76836 6.44389 10.0231 5.44293L10.7382 2.63412C10.7841 2.45371 10.6982 2.26567 10.5316 2.18242L10.0082 1.92072L6.27944 7.20318C6.0816 7.48344 5.82871 7.71318 5.54102 7.88197ZM3.95768 8.20853H2.37435V14.5419H3.95768V8.20853Z"/>
</svg>
