<svg width="31" height="32" viewBox="0 0 31 32" fill="none" xmlns="http://www.w3.org/2000/svg">
<circle cx="15.5" cy="16" r="15.5" fill=""/>
<path d="M8.85742 24.1198C8.85742 20.7034 11.6663 17.9338 15.1312 17.9338C18.5962 17.9338 21.405 20.7034 21.405 24.1198H19.8366C19.8366 21.5575 17.7299 19.4803 15.1312 19.4803C12.5325 19.4803 10.4259 21.5575 10.4259 24.1198H8.85742ZM15.1312 17.1606C12.5315 17.1606 10.4259 15.0844 10.4259 12.5211C10.4259 9.95784 12.5315 7.88168 15.1312 7.88168C17.7309 7.88168 19.8366 9.95784 19.8366 12.5211C19.8366 15.0844 17.7309 17.1606 15.1312 17.1606ZM15.1312 15.6141C16.8644 15.6141 18.2681 14.23 18.2681 12.5211C18.2681 10.8123 16.8644 9.42817 15.1312 9.42817C13.3981 9.42817 11.9943 10.8123 11.9943 12.5211C11.9943 14.23 13.3981 15.6141 15.1312 15.6141Z" fill="#1C232F"/>
</svg>
