<svg width="49" height="49" viewBox="0 0 49 49" fill="none" xmlns="http://www.w3.org/2000/svg">
<path d="M17 34C17 29.5817 20.5817 26 25 26C29.4183 26 33 29.5817 33 34H31C31 30.6863 28.3137 28 25 28C21.6863 28 19 30.6863 19 34H17ZM25 25C21.685 25 19 22.315 19 19C19 15.685 21.685 13 25 13C28.315 13 31 15.685 31 19C31 22.315 28.315 25 25 25ZM25 23C27.21 23 29 21.21 29 19C29 16.79 27.21 15 25 15C22.79 15 21 16.79 21 19C21 21.21 22.79 23 25 23Z" fill="white"/>
<rect x="1.62312" y="24.0416" width="33" height="33" rx="7.5" transform="rotate(-45 1.62312 24.0416)" stroke="#A5A5A5"/>
</svg>
