<svg width="42" height="42" viewBox="0 0 42 42" fill="none" xmlns="http://www.w3.org/2000/svg">
<path d="M14.0488 29.6994C14.0488 25.8403 17.1772 22.7119 21.0364 22.7119C24.8955 22.7119 28.0239 25.8403 28.0239 29.6994H26.277C26.277 26.8051 23.9307 24.4588 21.0364 24.4588C18.142 24.4588 15.7957 26.8051 15.7957 29.6994H14.0488ZM21.0364 21.8385C18.1409 21.8385 15.7957 19.4933 15.7957 16.5978C15.7957 13.7024 18.1409 11.3572 21.0364 11.3572C23.9318 11.3572 26.277 13.7024 26.277 16.5978C26.277 19.4933 23.9318 21.8385 21.0364 21.8385ZM21.0364 20.0916C22.9667 20.0916 24.5301 18.5281 24.5301 16.5978C24.5301 14.6675 22.9667 13.1041 21.0364 13.1041C19.106 13.1041 17.5426 14.6675 17.5426 16.5978C17.5426 18.5281 19.106 20.0916 21.0364 20.0916Z" fill="white"/>
<rect x="0.707107" y="20.9998" width="28.6985" height="28.6985" rx="7.5" transform="rotate(-45 0.707107 20.9998)" stroke="#A5A5A5"/>
</svg>
